<?xml version="1.0" standalone="no"?>
<!DOCTYPE svg PUBLIC "-//W3C//DTD SVG 1.1//EN" "http://www.w3.org/Graphics/SVG/1.1/DTD/svg11.dtd" >
<svg>
<metadata>
Created by FontForge 20090622 at Sat Dec  1 16:48:04 2012
 By ffonts
Leo Lapasset @ Bitworker - 2012
</metadata>
<defs>
<font id="ComicNoteSmooth" horiz-adv-x="494" >
  <font-face 
    font-family="Comic Note"
    font-weight="500"
    font-stretch="normal"
    units-per-em="1000"
    panose-1="0 0 0 0 0 0 0 0 0 0"
    ascent="750"
    descent="-250"
    x-height="496"
    cap-height="499"
    bbox="-74.3913 -220.316 866.25 689.19"
    underline-thickness="50"
    underline-position="-50"
    unicode-range="U+0020-U+20AC"
  />
<missing-glyph horiz-adv-x="299" 
 />
    <glyph glyph-name=".notdef" horiz-adv-x="299" 
 />
    <glyph glyph-name=".null" horiz-adv-x="0" 
 />
    <glyph glyph-name="nonmarkingreturn" horiz-adv-x="299" 
 />
    <glyph glyph-name="space" unicode=" " horiz-adv-x="357" 
 />
    <glyph glyph-name="space" unicode="&#xa0;" horiz-adv-x="357" 
 />
    <glyph glyph-name="G" unicode="G" horiz-adv-x="581" 
d="M431 393q0 -4 -4 -9q-3 -5 -9.5 -10.5t-18.5 -12.5q-11 -7 -20.5 -1.5t-16.5 13.5q-9 10 -15 24q-31 -6 -62 -16q-26 -9 -56 -23t-53 -35q-25 -21 -40 -55t-10.5 -69t33 -64t90.5 -39q30 -5 54 -3t43 9t33 17.5t24 22.5q24 28 34 67q-23 -3 -44 -5q-18 -2 -38 -3.5
t-33 -1.5t-18 8t-6 19.5t0 24.5t0 24q-3 9 7.5 14t29 7.5t44.5 3.5t55 2q28 1 55 0t48.5 -3t37.5 -5t22 -5q6 -3 8 -9.5t1.5 -15t-3 -18t-3.5 -17.5q-2 -7 -12.5 -11.5t-23.5 -8.5q-15 -4 -33 -7q13 -44 20 -81q6 -32 6.5 -62t-12.5 -42q-14 -13 -33 -15.5t-36 -0.5
q-20 2 -42 9q-1 5 -2 11q-1 5 -2 11t-3 13q0 6 -3 7t-6 -1q-4 -2 -9 -6q-13 -9 -31 -18q-15 -8 -36.5 -15t-50.5 -9q-19 -2 -46.5 -1t-57.5 7t-60 18.5t-54.5 34t-41 53.5t-19.5 77q-3 44 12.5 83t42.5 71.5t61.5 59t70 46t69 31t57.5 15.5q37 4 58 -12.5t32 -36.5
q12 -25 16 -56z" />
    <glyph glyph-name="H" unicode="H" horiz-adv-x="514" 
d="M504 479q5 -23 6 -47.5t-1.5 -53t-7.5 -61l-11 -72.5q-8 -39 -10 -72t-2 -59.5t1 -45.5t0 -30t-18 -18.5t-39.5 -11t-44.5 -2.5t-33 7q-10 7 -14.5 16.5t-2.5 28.5t12 49.5t30 78.5q0 3 2 5l2 2l-69.5 -7.5t-75.5 -9.5q-37 -5 -61 -9.5t-40 -4.5q-2 -45 -5.5 -81.5
t-8.5 -49.5q-8 -21 -29.5 -30.5t-52.5 -4.5q-16 3 -22.5 16.5t-6 35t6.5 48t15 55.5q6 19 11.5 49.5l11.5 65.5t11.5 70.5t11 65.5t11.5 51t12 26q9 8 20 8t22 -3q11 -4 24 -12q7 -17 10 -39t1.5 -46t-6.5 -47.5t-13 -42.5q-2 -3 -3 -7t-4 -8q9 -4 25 -8t36.5 -6t44.5 -1.5
t50 5.5l57 13.5t40 7.5q7 60 3.5 103t-3.5 56q0 9 6 18t15 15.5t19 11t18 4.5t16 -3.5t16 -7.5q9 -5 17 -11z" />
    <glyph glyph-name="I" unicode="I" horiz-adv-x="421" 
d="M362 132q23 1 34 -13t15 -32t2.5 -36t-2.5 -24q-3 -14 -24 -17t-72 -5q-23 -1 -61 -3l-78 -4t-75.5 -4.5t-51.5 -5.5q-17 -1 -26.5 7t-12.5 20.5t-2 28t5 28.5t15.5 21.5t28 13.5t36 8.5t39.5 6.5q8 0 20 0.5t24 2.5v103v143q-17 0 -37 -1t-39 -6q-19 -3 -28 4t-11 18.5
t0 26t4 27.5q1 10 16.5 18t39.5 14t53.5 11t58.5 8t55 5t43 3q26 1 42.5 -7.5t25.5 -23t12 -32t3 -33.5t-8 -23t-18.5 -9t-20 -1t-12.5 1q-1 0 -10 1t-22 1.5t-28 1.5t-28 1q0 -22 -1.5 -52.5t-1.5 -60.5q0 -18 0.5 -38l1 -38.5t1 -34t0.5 -24.5q20 2 37.5 2t30.5 1
q15 0 27 1z" />
    <glyph glyph-name="J" unicode="J" horiz-adv-x="424" 
d="M304 415q19 -17 40.5 -41.5t39.5 -54t29.5 -62.5t11.5 -67q0 -41 -15.5 -76t-42.5 -60.5t-63.5 -39.5t-78.5 -14t-74 11t-53 28.5t-32 38t-11 40.5q0 21 7.5 36.5t19.5 25.5t27 15t29 5q31 0 43.5 -16t12.5 -35q0 -11 -5 -18.5t-11 -12.5q-7 -6 -16 -10q30 -21 59.5 -21
t53.5 12.5t38.5 32.5t14.5 38q-2 18 -3 30t-6.5 25.5t-17.5 32.5t-35 50q-23 37 -49.5 56.5t-47.5 33.5q-36 -11 -61.5 -22t-42.5 -19q-15 -8 -25 -9.5t-16.5 2.5t-11 12.5t-9.5 21.5q-13 26 22.5 51.5t109.5 41.5q35 8 70.5 13t67 7t57 1.5t39.5 -3.5q13 -3 20.5 -13.5
t10 -22.5t0 -23.5t-9.5 -17.5q-8 -7 -19 -8t-22 0q-12 1 -25 5h-20v0z" />
    <glyph glyph-name="L" unicode="L" horiz-adv-x="423" 
d="M19 79q24 67 42 127l14 51.5t12.5 49.5t8 42.5t1.5 31.5q-4 24 -10 41.5t-9 30t-1 21t16 15.5t28.5 10.5t27 2t21.5 -8.5t12 -20q4 -13 4.5 -37t-2 -54.5t-7.5 -64t-13 -64.5q-8 -29 -13 -56.5t-7 -48.5q-3 -25 -4 -47q29 -1 58 0q25 1 52 3.5t49 7.5q43 11 72.5 7
t38.5 -25q3 -11 4 -23.5t-3.5 -24t-16.5 -20.5t-34 -13q-15 -2 -40 -4.5t-55.5 -4.5t-63 -3.5t-61.5 -2.5t-52 -0.5t-33 3.5q-30 9 -38.5 32t2.5 46z" />
    <glyph glyph-name="N" unicode="N" horiz-adv-x="529" 
d="M63 41q0 38 -2 76q-2 32 -4.5 68t-7.5 65q-4 18 -11.5 43l-15 52t-13 53.5t-5.5 48.5t7 37t24 19q26 5 55 -16t57.5 -51.5t54.5 -62.5t46 -49q19 -17 43.5 -41.5t47 -44t40 -27t23.5 10.5q4 12 5.5 35t1 49.5t-0.5 55t1.5 52t6 40.5t14.5 20l28.5 8t27 0.5t21 -17
t10.5 -43.5q2 -20 3 -59.5t-0.5 -87t-5 -97t-10.5 -89.5t-18.5 -65t-27.5 -22q-25 4 -41.5 13.5t-28.5 22t-22 28t-23 30.5q-9 11 -27.5 30.5l-41.5 42l-47.5 45l-45 40t-34 26.5t-14.5 5q-3 -5 0.5 -18.5t9 -31.5l12 -39.5t10.5 -42.5q3 -21 4.5 -46.5t-2.5 -47.5
t-13.5 -37.5t-27.5 -16.5q-17 -3 -29 2t-20 13q-9 9 -14 21z" />
    <glyph glyph-name="O" unicode="O" horiz-adv-x="470" 
d="M228 498q67 3 111 -16.5t70 -55.5t37 -86t11 -108q0 -38 -10 -77.5t-34 -72t-64 -54.5t-101 -26q-45 -3 -87 14t-75 48t-53 74.5t-21 93.5q-2 50 13 97t43 83.5t68.5 60t91.5 25.5zM361 252q1 40 -8.5 67.5t-25.5 45t-35.5 26t-37.5 9.5q-19 1 -43.5 -4.5t-46.5 -21.5
t-37.5 -44.5t-16.5 -73.5q0 -44 12.5 -74t32.5 -48.5t45.5 -27t51.5 -8.5q56 0 81.5 37.5t27.5 116.5z" />
    <glyph glyph-name="Q" unicode="Q" horiz-adv-x="510" 
d="M435 100l16 -27.5t13 -23.5q6 -12 12 -22q9 -16 5.5 -25t-14.5 -12.5t-27.5 -3t-32 5t-28.5 11t-17 14.5q-3 5 -6.5 9.5t-8.5 7.5q-33 -16 -64.5 -22.5t-52.5 -9.5q-29 -4 -66 3.5t-70 33t-54.5 71t-18.5 118.5q1 73 26 124.5t61 84t78 47.5t78 15q52 0 94.5 -11
t73 -36.5t47.5 -66.5t18 -101q3 -63 -15 -108t-47 -76zM125 242q-5 -55 4 -86t27 -44.5t43.5 -12.5t54.5 11q5 2 10.5 4.5t10.5 2.5q-8 21 1 34.5t23 24.5q11 11 27 12t39 -15q20 20 32.5 47.5t9.5 66.5q-3 40 -15.5 67.5t-32 43t-44.5 21.5t-51 3q-35 -11 -64 -35
q-25 -20 -47.5 -55t-27.5 -90z" />
    <glyph glyph-name="R" unicode="R" horiz-adv-x="474" 
d="M446 125q1 -13 -1.5 -27.5t-9.5 -26t-20 -16.5t-33 1l-53.5 21l-66 25.5l-62 22.5t-40.5 13q-13 4 -21 5t-13 1q-6 0 -9 -2q0 -33 -1 -59q-1 -23 -2.5 -43t-3.5 -24q-8 -8 -22 -12t-37 -2q-11 1 -17 10.5t-8.5 22t-2.5 26t1 24.5l16 162l6 61t6 54.5l5 41t4 20.5
q4 7 22.5 22.5t45.5 29.5t59 22.5t61 2.5q28 -6 51 -21t38 -36.5t20.5 -49t-1.5 -59.5q-8 -32 -24.5 -53t-33.5 -33q-20 -15 -43 -22l78 -28q15 -5 29 -10.5l25 -9.5t17.5 -7l6.5 -3q0 -1 5.5 -4t11.5 -8t11.5 -13t5.5 -19zM177 264q6 0 20 5.5t29.5 14.5t29.5 19t20 19
q15 17 6 42.5t-36 42.5q-13 9 -30 5.5t-32 -11.5t-26.5 -17.5t-14.5 -13.5q-3 -3 -4.5 -17.5t-3.5 -31.5q-2 -19 -2 -43q9 -3 17 -6q7 -2 14.5 -4.5t12.5 -3.5z" />
    <glyph glyph-name="S" unicode="S" horiz-adv-x="366" 
d="M199 504q32 -2 54.5 -18t34 -37.5t11 -43.5t-13.5 -35q-12 -12 -23.5 -13t-21 3t-16.5 11t-11 12q-3 5 -11.5 12.5t-20 11.5t-23.5 1.5t-21 -18.5q-10 -14 -2 -29t25 -29.5t39 -28t41 -23.5q18 -12 35.5 -22.5t32.5 -22.5t27.5 -27.5t21.5 -37.5t9 -48.5t-11.5 -51.5
t-36.5 -43.5t-66 -24.5q-42 -5 -78 -1t-67 13t-56 20.5t-44 22.5q-19 10 -25.5 23t-5 26t8.5 25.5t15 21.5q19 18 45 8.5t54 -32.5q13 -11 31 -18.5t36.5 -10.5t36.5 -2t31 7q24 13 16 35.5t-44 60.5q-18 21 -41.5 33t-47.5 26.5t-45 35.5t-33 60q-12 40 3.5 68.5t43 46
t59.5 25.5t54 8z" />
    <glyph glyph-name="T" unicode="T" horiz-adv-x="411" 
d="M406 487q20 -14 24 -37.5t-11 -41.5q-8 -8 -14.5 -10.5t-13.5 -3t-16 0t-21 -0.5q-18 0 -29 -2t-32 -5q-2 -16 -6.5 -48.5t-7.5 -70.5q-1 -24 1 -54.5t5.5 -59.5t7.5 -52.5t7 -35.5q2 -21 3 -36.5t-17 -20.5q-9 -2 -26 -5.5t-34.5 -2.5t-32.5 8t-20 26q-6 18 -6.5 62
t2.5 95t7.5 99t6.5 75q-33 -8 -70 -13.5t-70 -5.5q-23 -1 -38.5 5.5t-24.5 18.5t-12 27t0 31q2 15 12 24.5t23 15t26.5 7t24.5 0.5q10 0 28.5 0.5t41.5 2t48.5 3.5t51.5 5q50 8 82 11t48 6q16 0 24.5 -2t27.5 -15z" />
    <glyph glyph-name="U" unicode="U" horiz-adv-x="491" 
d="M436 200q2 -18 6 -39t9.5 -41t11 -37t10.5 -27q10 -20 -4 -36.5t-57 -18.5q-23 -2 -36 4.5t-21 16.5q-9 11 -12 26q-38 -10 -78 -19q-35 -8 -77 -16t-84 -12q-43 -4 -61 11t-21.5 37.5t2 47.5t10.5 42q6 15 13 41t14 56t12.5 59.5l9.5 52.5q5 21 7.5 41t7.5 36t15 26.5
t31 12.5t30 -18.5t10.5 -51.5t-2 -66.5t-7.5 -62.5q-3 -26 -14 -51t-19 -46t-8.5 -38t16.5 -27q18 -9 47.5 -4t58.5 14q33 11 70 28q-6 59 -10 113q-2 23 -3 47t-1.5 46.5t-0.5 42.5t2 35q1 31 10.5 47t24 22.5t31.5 6t33 -3.5q14 -1 18.5 -10.5t3.5 -25t-4.5 -35
t-4.5 -38.5q0 -20 1.5 -51t3.5 -62z" />
    <glyph glyph-name="X" unicode="X" horiz-adv-x="526" 
d="M443 188l51.5 -34t43 -30t29 -26t9.5 -24q0 -20 -7.5 -39t-30.5 -30q-13 -5 -28.5 -5.5t-31 3t-29 11t-20.5 19.5q-5 10 -24 29t-45 42.5l-57.5 49.5l-62.5 51q-27 -36 -45 -64t-30 -49l-20 -35.5t-15 -23.5q-13 -21 -44 -30.5t-73 10.5q-19 12 -22.5 27.5t2.5 32.5
t19.5 34t28.5 32q13 12 28.5 28.5l31 34.5l31.5 36.5l30 35.5q-52 38 -81.5 66t-31.5 59q-6 34 15.5 49.5t51.5 12.5q13 -1 25.5 -11.5t25 -25.5t25.5 -33t27 -33q8 11 16 23.5l16 25.5q13 19 23 35t20.5 28t22 19.5t26.5 9.5q15 1 28.5 -2.5t22 -12.5t10 -23.5t-5.5 -33.5
q-11 -26 -35.5 -61.5t-57.5 -78.5l68.5 -51.5t69.5 -47.5z" />
    <glyph glyph-name="bracketleft" unicode="[" horiz-adv-x="518" 
d="M228 516q-14 -21 -26 -58q-11 -32 -22 -83t-16 -128q-4 -50 -1.5 -98.5t7.5 -86.5q5 -45 12 -85q31 0 62 2q26 2 56 6t54 14q24 8 54.5 14t56.5 6.5t42 -4.5t12 -19q-5 -15 -27.5 -33t-55 -35t-71.5 -30.5t-78 -20.5t-75 -12.5t-64.5 -3t-48.5 16.5t-27 45t-10.5 64
t-5 73t-1 89.5t1.5 112.5q1 61 9.5 123.5t22 114.5t31 87.5t35.5 41.5q12 4 38 5t58.5 -0.5t67 -5t64.5 -8.5t51 -11.5t26 -13.5q8 -9 13 -18.5t4 -17t-9 -13.5t-25 -8q-17 -3 -53 -6.5t-72 -7.5q-42 -4 -90 -8z" />
    <glyph glyph-name="backslash" unicode="\" horiz-adv-x="833" 
d="M507 248l21.5 -36l28 -47l29 -51l25.5 -47.5t15.5 -37t0.5 -19.5q-14 -11 -28.5 4.5t-37.5 49.5q-8 12 -33.5 47l-60 82l-73.5 100l-73.5 100l-60 82.5t-32.5 47.5q-12 18 -16 31t-3.5 22.5t4 16.5t8.5 13q10 11 23 7.5t29 -10.5q7 -5 20 -23l29.5 -42.5l35.5 -53.5
l37 -56l36 -58.5l36 -58.5q19 -32 40 -63z" />
    <glyph glyph-name="bracketright" unicode="]" horiz-adv-x="567" 
d="M325 518q-49 4 -91 8q-36 3 -71.5 6.5t-52.5 7.5q-18 2 -26 7.5t-9 14t4 18t14 19.5q5 7 26 13t51 11t64.5 8.5t67 5t58.5 0.5t38 -4q19 -6 36.5 -42t31 -88.5t22.5 -115.5t10 -124q1 -63 1.5 -113t-1 -90.5t-5.5 -73.5t-11 -64t-27 -45t-48.5 -16.5t-64.5 2.5t-75 12
t-79 21t-73 31.5t-55.5 35.5t-27.5 33q-4 14 12.5 19t42.5 4t57 -6.5t56 -13.5q24 -10 53.5 -14t55.5 -6q31 -2 62 -2q8 40 13 85q5 38 7 86.5t0 98.5q-7 76 -17.5 128t-21.5 84q-12 37 -27 59z" />
    <glyph glyph-name="asciicircum" unicode="^" horiz-adv-x="396" 
d="M207 502q-7 -8 -17 -18l-19.5 -20.5l-25.5 -27.5q-14 -16 -28 -35t-28 -35.5t-28 -27.5t-29 -10q-29 2 -30.5 24t12.5 59q4 12 17 32.5t30.5 45.5l37 52l37.5 50.5l32 41.5t21 25q11 10 21 6.5t19.5 -15.5t17.5 -31.5t15 -41.5q7 -23 15.5 -39t19.5 -29.5t24.5 -25.5
t30.5 -25l26 -21.5t12.5 -15t2.5 -18t-4 -30.5q-3 -19 -12.5 -24.5t-23 -2.5t-29 11l-30.5 16q-14 9 -29 30t-28 44q-15 26 -30 56z" />
    <glyph glyph-name="underscore" unicode="_" horiz-adv-x="570" 
d="M547 -70q-17 -5 -31 -6.5t-30 -1.5t-37 1t-51 1t-79 0.5l-98.5 1t-90.5 1t-56 0.5q-14 0 -27 1t-21 6t-11 15t3 28t24.5 24.5t43.5 5.5t54 -6t56 -9q27 -5 66 -4t80 4l79.5 6t65.5 3t43 -10.5t23 -23t5 -24t-11 -13.5z" />
    <glyph glyph-name="question" unicode="?" horiz-adv-x="374" 
d="M275 541q-2 11 -10.5 14.5t-20.5 2.5t-26 -5.5l-27 -8.5q-24 -13 -44 -22l-22 -10q5 -12 5 -22q0 -9 -4.5 -17t-17.5 -13q-12 -4 -30 0t-32.5 14t-20.5 25t6 33q22 38 59 55t86 28q25 5 54.5 9t55 1.5t43 -15t18.5 -41.5q0 -30 -3.5 -49t-10 -32.5t-17 -22.5t-23.5 -19
l-34 -28t-38 -34.5t-30 -32.5t-9 -21q3 -7 8.5 -15t10 -15.5t6 -14.5t-2.5 -12l-11.5 -14t-15.5 -12.5t-19.5 -3t-23.5 13.5q-12 13 -22 25t-14.5 23t-3 23.5t13.5 27.5q8 10 23.5 26.5l34 36l38 39.5l35.5 37.5t26 29.5t10 16zM231 11q21 16 27.5 37.5t-10.5 43.5
q-15 23 -30.5 29t-41.5 -5q-12 -5 -23 -15t-17 -22.5t-5 -25.5t12 -24q23 -23 44 -29t44 11z" />
    <glyph glyph-name="exclam" unicode="!" horiz-adv-x="257" 
d="M108 222q-12 -2 -18.5 2t-10.5 13t-6.5 23t-5.5 33q-5 20 -4 52t6.5 68t14.5 71.5t21 62.5q25 53 48 69.5t49 16.5q13 0 19.5 -8t7 -19t-3.5 -22.5t-11 -18.5q-7 -6 -12.5 -11.5t-12 -15t-13.5 -25.5t-17 -43q-11 -26 -14.5 -53t-4 -52t0.5 -46.5t0 -36.5
q-1 -16 -0.5 -27t-1.5 -18t-9 -10.5t-22 -4.5zM162 3q-27 -6 -50.5 1.5t-32.5 40.5q-5 18 -1 33.5t13.5 27.5t23 19.5t29.5 8.5q29 4 43.5 -16t14.5 -47q3 -26 -3.5 -43t-36.5 -25z" />
    <glyph glyph-name="quotedbl" unicode="&#x22;" horiz-adv-x="240" 
d="M89 462q-8 -51 -19 -68.5t-36 -9.5q-13 4 -16.5 23t-2.5 45t4.5 54.5t5.5 51.5t9.5 36.5t18.5 18.5t23.5 3.5t24.5 -8.5q12 -9 11.5 -32.5t-5.5 -49.5q-6 -30 -18 -64zM131 412q-1 3 -0.5 21.5t3.5 42t8.5 46t16.5 33.5q22 21 43.5 18t24.5 -32q1 -14 -1.5 -40.5t-7 -53
t-11.5 -47t-14 -22.5q-8 -2 -17 -3t-18 2t-16.5 11t-10.5 24z" />
    <glyph glyph-name="numbersign" unicode="#" horiz-adv-x="585" 
d="M578 346q6 -17 2 -28t-16 -17.5t-32 -10t-45 -4.5q-20 -2 -43 -4l-48 -4l-16 -42t-17 -42q33 -2 56 -13t21 -31q-2 -15 -9 -22t-18.5 -10t-27 -3.5t-34.5 -1.5h-13.5t-19.5 -2q-11 -15 -25.5 -37.5t-30.5 -41t-31.5 -28t-28.5 0.5q-14 10 -19 18t-5 15.5t3 14.5t5 15l6 9
l7 11.5t9 15.5q-17 -2 -32 -4t-32 -2q-8 -36 -21 -64.5t-32 -28.5q-25 3 -37.5 26t-4.5 61q-12 1 -23 5.5t-17.5 11.5t-6 15.5t10.5 18.5q7 7 22 11.5t38 9.5q12 33 30 77.5l37.5 88.5t37.5 79.5t32 50.5q15 16 26.5 21t20.5 3.5t14.5 -8t7.5 -13.5q9 -33 -16 -75
q-6 -9 -12 -23.5t-14 -30.5q15 0 33 2l36 4q14 30 27.5 48t29.5 18q15 1 27 -0.5t19.5 -7t10.5 -15t0 -25.5q4 0 8 1.5t6 1.5q17 3 39 8t43 5.5t38 -5t24 -23.5zM261 214q5 12 9.5 25t8.5 27h-24h-47q-9 -25 -19.5 -48.5t-17.5 -41.5l39.5 4l38.5 4q5 8 7 15.5t5 14.5z" />
    <glyph glyph-name="dollar" unicode="$" horiz-adv-x="372" 
d="M354 144q8 -26 1.5 -52t-28.5 -46.5t-60 -33.5t-92 -13q-55 0 -87 10t-48 25t-19.5 32t-1.5 31q5 28 26.5 45t50.5 22q14 2 21.5 -5t12.5 -18q0 5 1.5 9t1.5 8q0 7 1.5 15t1.5 19q-27 3 -46 8.5t-32 17.5t-21.5 31.5t-14.5 51.5q-5 24 3.5 45t25 39t37.5 32t42 24v25
q-2 12 -2 24t4 22.5t13.5 18t26.5 10.5q17 4 24.5 -5t9.5 -22q3 -15 0 -35v-8q0 -7 3 -22q30 -5 52.5 -23t35 -39t15.5 -41.5t-6 -30.5q-19 -23 -41.5 -16t-45.5 32h-2q2 -19 2 -39.5v-46.5h22q23 -3 40.5 -10t31 -19t23.5 -29.5t18 -42.5zM105 315q-14 -19 -4.5 -30.5
t35.5 -20.5v76q-9 -5 -15.5 -11zM119 97q-11 -9 -16.5 -18t11.5 -16q0 7 1.5 15zM217 52q34 6 50 26t14 50q0 25 -14.5 37t-44.5 18q0 -46 -0.5 -83t-4.5 -48z" />
    <glyph glyph-name="percent" unicode="%" horiz-adv-x="458" 
d="M231 448q10 -25 6 -47.5t-16 -41.5t-29 -33.5t-32 -23.5q-17 -10 -31 -11.5t-26.5 3t-24.5 13t-24 19.5q-13 10 -19 27.5t-5.5 36.5t8.5 38t23 33q16 14 41.5 23.5t51 10t47 -10t30.5 -36.5zM105 368q7 -4 19.5 -2t22.5 8.5t15 17t-2 24.5q-5 11 -12 15.5t-15.5 4t-16 -4
t-13.5 -8.5q-6 -4 -9.5 -11.5t-3.5 -15.5t3.5 -16t11.5 -12zM419 363q-4 -5 -12 -13l-17.5 -17l-24.5 -23l-27.5 -27.5l-41 -42l-48 -49l-48 -49l-41 -42.5l-27.5 -28l-27 -28.5t-28 -25t-27 -14t-23 4.5q-11 8 0.5 29.5t32.5 47t46 51.5l42 44l44.5 48.5l56 60.5l53 57.5
t36.5 38.5l24.5 22.5t24.5 18t23 7.5t21 -9q10 -9 10.5 -19t-3.5 -18.5t-10 -15t-9 -9.5zM438 124q8 -15 7 -34.5t-9.5 -37t-25 -31t-39.5 -17.5q-24 -4 -41 1t-28.5 17t-18.5 28.5t-11 34.5q-8 34 10 62.5t56 42.5q19 7 34 4t27.5 -12.5t22 -24.5t16.5 -33zM353 59
q17 4 25.5 10.5t4.5 26.5q-4 21 -13 24.5t-22 1.5q-11 -2 -19 -9t-6 -21q4 -14 9.5 -24.5t20.5 -8.5z" />
    <glyph glyph-name="ampersand" unicode="&#x26;" horiz-adv-x="557" 
d="M540 209q11 -12 4 -23.5t-25 -24t-43.5 -25.5l-51.5 -27q17 -15 32 -30.5t22 -28.5t4 -23.5t-21 -14.5q-36 -11 -69 6.5t-67 45.5q-51 -20 -107.5 -36.5t-111.5 -21.5q-43 -3 -63.5 11t-26 37t1.5 50t18 50q12 23 31 49t39 49l-31 34t-26 32q-15 17 -13.5 33t13 29.5
t30 25.5t38.5 22t38.5 18t29.5 14l39.5 21t44 16t38 -5t21.5 -41q3 -23 -5.5 -48.5t-24 -52.5t-35.5 -53t-39 -48q25 -21 55.5 -41l59.5 -38q25 10 55.5 21t59.5 18.5t52 8.5t34 -9zM158 315q0 -2 1 -2h2q5 4 8.5 6.5t6.5 7.5q23 23 33.5 38t5.5 26q-2 6 -10 3.5t-19 -9
t-23 -14.5t-23 -13q-17 -10 -11 -17t29 -26zM103 100q4 -8 17.5 -8t32 4.5t40.5 13t43 17.5l-33 30t-34 34q-14 -15 -26 -31t-21 -30q-11 -16 -19 -30z" />
    <glyph glyph-name="quotesingle" unicode="'" horiz-adv-x="225" 
d="M138 544q17 -3 30 -14q11 -9 20.5 -26t9.5 -47q0 -41 -12 -74.5t-29.5 -59t-36.5 -44t-33 -29.5q-13 -11 -25 -11t-21 6t-13.5 16t-2.5 19q2 15 17 30.5t45 43.5q15 14 22 29t9 28q3 15 0 29q-12 3 -23 8q-9 5 -17.5 12t-10.5 20q-4 28 13 45t58 19z" />
    <glyph glyph-name="parenleft" unicode="(" horiz-adv-x="213" 
d="M103 53q10 -30 23.5 -54.5t26.5 -44t22 -36t9 -29.5q0 -14 -8.5 -17t-24 7t-37 33.5t-47.5 62.5q-26 40 -40.5 92t-18.5 109t2 116.5t21 114.5q14 54 35.5 90t44 57.5t43 29.5t33.5 6q12 -2 18 -11t5 -22t-9.5 -28t-25.5 -28q-6 -5 -19.5 -21.5t-28.5 -43.5t-28.5 -65.5
t-19.5 -86.5t-1.5 -106t25.5 -125z" />
    <glyph glyph-name="parenright" unicode=")" horiz-adv-x="214" 
d="M112 64q20 65 24.5 122t-1.5 104t-19 84.5t-27.5 64.5t-28 43t-19.5 21q-17 13 -25 28t-9 27.5t5 21.5t18 11t32 -6t42 -29t43 -56.5t36 -88.5q14 -53 20 -111.5t2 -114.5t-18 -107.5t-40 -90.5t-47 -61.5t-36 -32t-23 -6.5t-8 16t9 28.5t21.5 35t26 43.5t22.5 54z" />
    <glyph glyph-name="asterisk" unicode="*" horiz-adv-x="236" 
d="M247 474q10 -11 12.5 -20t-0.5 -16.5t-9.5 -12.5t-13.5 -6q-9 -3 -26 0.5t-37 6.5q3 -5 8 -11t8 -12q7 -15 14 -22.5t11 -13.5t2 -12t-12 -18q-12 -14 -22 -12.5t-18 10t-15 21.5t-11 23q-3 9 -8.5 17.5t-11.5 14.5l-18 -31.5l-18 -31.5q-12 -16 -24 -16t-22.5 8t-17 20
t-6.5 19q-2 9 3.5 17.5t13.5 17l17.5 18.5t16.5 22q-13 0 -28 1.5t-28 5.5t-21.5 10t-8.5 15q0 20 22.5 25t51.5 2l-15 27t-16 28q-10 12 -7 20.5t12 14.5t21 9t21 3t15.5 -8t12.5 -20t11.5 -27t11.5 -28q15 21 30.5 35.5l24.5 23.5q23 18 35.5 7.5t15.5 -30.5
q0 -15 -16 -34l-31 -37l42.5 -9.5t27.5 -13.5z" />
    <glyph glyph-name="plus" unicode="+" horiz-adv-x="408" 
d="M261 435q-1 -8 -2 -19q-1 -9 -2 -22t-3 -30t-3.5 -40.5l-3 -47.5t-2 -46t0.5 -36q0 -14 -0.5 -27t-4.5 -23.5t-12.5 -17t-24.5 -6.5q-15 0 -20 12t-5 30t3 38t5 36q3 16 4 42t1.5 52t-0.5 48t-2 31q-2 19 2 26.5t23 12.5q11 2 19 0t14 -5q7 -4 13 -8zM258 318
q56 2 84.5 -7.5t28.5 -32.5q-1 -12 -10.5 -17.5t-23.5 -6.5t-30.5 0.5t-32.5 2.5q-17 0 -37.5 -0.5t-41 -2t-39.5 -3.5t-33 -5q-14 0 -29.5 -1t-29 0.5t-22.5 7t-9 17.5q-1 10 9.5 16.5t27 10.5t36.5 6t38 2q17 2 37.5 4t37.5 4q20 3 39 5z" />
    <glyph glyph-name="comma" unicode="," horiz-adv-x="220" 
d="M199 172q16 -21 19.5 -42t-2.5 -42.5t-19 -44.5t-30 -48q-16 -24 -30 -40.5t-28 -28t-29 -20t-33 -15.5q-16 -7 -23 -3t-7 12t5 18t12 16q12 12 24.5 27t35.5 48q10 17 15.5 33t8.5 28q4 14 4 25q-22 -1 -30 9.5t-7.5 25t6.5 28t14 18.5q29 20 51 18.5t43 -22.5z" />
    <glyph glyph-name="hyphen" unicode="-" horiz-adv-x="277" 
d="M209 214q-22 2 -57 -3t-68 -5t-56.5 10.5t-23.5 43.5q1 32 14 45t32 15.5t41 -0.5t40 -3q20 0 43.5 0.5t43.5 -4t33.5 -16.5t13.5 -37q0 -26 -8.5 -36t-19.5 -12q-12 -3 -28 2z" />
    <glyph glyph-name="period" unicode="." horiz-adv-x="243" 
d="M182 48q-4 -28 -19 -38t-32.5 -8.5t-34 10.5t-23.5 19q-7 9 -8 22.5t3.5 26t15.5 23t29 13.5q23 4 37.5 -1t22 -15t9.5 -23.5t0 -28.5z" />
    <glyph glyph-name="zero" unicode="0" horiz-adv-x="519" 
d="M295 499q48 1 88.5 -9t70 -36.5t45 -70t13.5 -107.5q-2 -65 -24.5 -116t-58 -86.5t-79 -54.5t-87.5 -19q-45 0 -90 7t-81 29t-60.5 62.5t-29.5 108.5t23 122t73 91.5t98.5 57.5t98.5 21zM404 262q1 40 -7.5 67t-25 43t-40 22.5t-51.5 5.5q-26 0 -56 -12t-55 -35
t-41 -56.5t-13 -76.5q3 -42 17 -67.5t34.5 -39.5t45.5 -18.5t51 -4.5t51 12t45 34.5t32.5 54t12.5 71.5z" />
    <glyph glyph-name="one" unicode="1" horiz-adv-x="522" 
d="M364 123q14 -4 30.5 -5t31.5 -2.5t27 -5.5t18 -14q7 -9 7 -22t-5.5 -26t-15.5 -23.5t-22 -16.5q-12 -5 -25 -4t-28 4.5t-33.5 7t-43.5 3.5t-44.5 -2t-37.5 -5l-35.5 -6t-38.5 -4q-41 -3 -58 11t-17 28q-2 15 7 26t28 22q10 8 33 10.5t47 4.5q28 1 61 1q3 7 6.5 24.5
t6.5 39.5t5.5 46l4.5 44.5t3 34t1 15.5q-5 5 -33.5 -17.5t-72.5 -64.5l-39 -34t-29 -20t-26 -3t-31 18q-15 16 -8.5 37t25 42t44.5 39.5t49 30.5q45 28 93.5 63t97.5 81q15 16 23.5 17t11 -8.5t1.5 -26.5t-3.5 -35.5l-5 -36t-3.5 -27.5q-2 -17 -2 -32t-0.5 -39.5t-1 -64
t-3.5 -105.5z" />
    <glyph glyph-name="two" unicode="2" horiz-adv-x="479" 
d="M116 104q26 -6 64 -3t76 9t71.5 14t50.5 13q33 13 50.5 -3.5t24.5 -47.5q8 -32 -1.5 -50.5t-32.5 -29.5q-12 -5 -35.5 -4.5t-51.5 2.5t-57.5 3.5t-52.5 -1.5q-23 -1 -51 -2.5t-55 -0.5t-50 6.5t-35 18.5q-12 11 -14 28t3 37t15 42t23 44q14 21 35 42t42 39.5l39.5 33.5
t27.5 23q7 6 15.5 12t15.5 12t10.5 11.5t0.5 9.5q-4 4 -13 0t-21.5 -14l-28.5 -23.5l-34 -29.5q-17 -15 -32.5 -19t-28 -1t-23 11t-16.5 17q-12 16 -7 38.5t28 64.5q12 21 46.5 36.5t74.5 26t76 17t50 9.5q14 4 27.5 5t25.5 -4t21.5 -16.5t16.5 -31.5q12 -42 -4.5 -75.5
t-48.5 -59.5q-15 -13 -41 -31.5l-54.5 -38.5l-54.5 -38t-41 -30q-14 -12 -26 -24t-19 -22.5t-8 -17t7 -7.5z" />
    <glyph glyph-name="three" unicode="3" horiz-adv-x="572" 
d="M437 287q10 -5 24 -13.5t28.5 -23t27.5 -36t22 -52.5q8 -29 -5 -57t-42 -50.5t-72 -37t-95 -15.5q-53 -2 -105.5 2t-94 13.5t-66.5 25.5t-23 38q3 23 17.5 34t34 15.5t40 5t34.5 2.5q15 1 28 -6.5t27.5 -17t32.5 -17t44 -6.5q27 0 52.5 5.5t46 15t32.5 22t12 25.5
q0 12 -9.5 21.5t-25 16t-34 10t-36.5 3.5q-33 3 -57 11.5t-24 38.5q0 14 7 23.5t17.5 15t23 7.5t22.5 2q20 3 38.5 18t24.5 41q1 12 -1.5 22.5t-11 18.5t-24.5 12.5t-42 6.5q-24 1 -40.5 -8t-28 -22.5t-18.5 -29l-12 -27.5q-6 -12 -18.5 -16t-25 0.5t-22 18.5t-9.5 37
q0 21 10.5 38.5t26 31.5t33 24t30.5 15q13 4 43.5 8t66 0.5t68 -18.5t48.5 -49q18 -33 17 -59.5t-9 -45.5q-10 -22 -28 -38z" />
    <glyph glyph-name="four" unicode="4" horiz-adv-x="402" 
d="M277 271q0 14 0.5 27t2.5 21q0 9 3.5 20.5t11.5 20t21.5 11t33.5 -7.5q19 -11 24 -27t2.5 -33t-8 -34t-7.5 -31q-4 -15 -2 -35.5t6 -43t8.5 -43.5t6.5 -36q3 -17 5 -30t-2 -22.5t-17.5 -16t-41.5 -9.5q-30 -3 -43.5 10.5t-17 33.5t-1 41t3.5 33q0 10 -3 13.5t-6 4.5
q-4 1 -8 -2q-42 -10 -93 -12t-102 16q-25 10 -34.5 28.5t-9 39.5t7.5 42.5t15 37.5q8 18 19 47.5l23 59l22.5 54t16.5 33.5q7 9 17 13.5t19.5 2.5t16.5 -12t10 -30q3 -21 -5.5 -50.5t-21 -59.5t-26 -57.5t-19.5 -46.5t-5.5 -27.5t3.5 -10.5q4 -4 11 -1q33 -9 62.5 -5
t52.5 13q26 11 48 27v33z" />
    <glyph glyph-name="five" unicode="5" horiz-adv-x="456" 
d="M354 398q-25 6 -54 6.5t-57 -2.5t-51.5 -8t-36.5 -10q-28 -8 -31 -21.5t8 -27.5q6 -5 13.5 -6.5t15.5 -1.5q9 0 18 1q55 4 95.5 -3t70 -24t50 -43t34.5 -59q15 -32 10.5 -65.5t-28.5 -61t-66 -47t-101 -24.5q-58 -5 -100 4.5t-69 25t-40 31.5t-13 24q0 7 3.5 17t12 19
t23 16t36.5 10q23 4 42.5 -3.5t36.5 -19l32 -22t29 -13.5q15 -3 34.5 -2t36.5 9.5t28 26.5t8 50q-2 20 -13.5 33.5t-28.5 21t-37 10t-38.5 2.5t-33.5 -2.5t-21 -5.5q-10 -3 -32 -12t-45.5 -7.5t-41.5 22t-21 76.5q-3 58 18 93t52 54.5t64.5 26.5t56.5 10t50.5 0.5t51.5 -9.5
t41.5 -17.5t21.5 -24.5q4 -16 -0.5 -25t-12.5 -14q-9 -6 -21 -8z" />
    <glyph glyph-name="six" unicode="6" horiz-adv-x="524" 
d="M297 236q37 12 74 12.5t67 -12t49 -38t19 -65.5q0 -36 -20 -61.5t-51 -41.5t-67.5 -23.5t-70.5 -7.5q-81 0 -136 15.5t-88 41.5t-46.5 61t-12.5 74t15 79.5t36 78.5q33 57 79.5 88t92.5 45t85.5 16.5t57.5 1.5q34 -6 53 -23.5t14 -44.5q-1 -12 -6.5 -18.5t-11.5 -9
t-12 -2.5h-9q-4 0 -19 3.5t-40 2.5t-58.5 -11.5t-74.5 -37.5q-40 -28 -59.5 -60.5t-27.5 -61.5q-10 -33 -8 -67q24 11 52 22q24 10 56 21.5t68 22.5zM355 89q21 8 29.5 21t8 25t-8 21t-18.5 10q-7 0 -25.5 -4t-41 -10t-45.5 -14t-39.5 -16t-23.5 -16t4 -13q8 -4 26 -8
t41 -5.5t47.5 0t45.5 9.5z" />
    <glyph glyph-name="seven" unicode="7" horiz-adv-x="527" 
d="M420 292q24 2 37.5 -4t20 -16.5t7.5 -25t0 -28.5t-11 -20t-21 -8q-13 -3 -30 -1h-3v-52q2 -23 6 -47.5t1 -44.5t-17 -33t-48 -13q-20 0 -30.5 4t-15.5 9q-6 5 -6 13q5 25 9 52q4 23 8.5 52t8.5 60q-42 -2 -87 -5t-72 -8q-46 -5 -71.5 1t-48.5 19q-23 12 -14.5 28.5
t40.5 31.5q11 4 39.5 8.5t65 8.5t76.5 7.5t75 7.5q0 3 -0.5 7t-2.5 6q-11 63 -31 86t-55 18q-32 -5 -63.5 -13.5l-57.5 -15.5q-11 -5 -25 -8.5t-26.5 -2t-22 8t-12.5 21.5q-2 30 24 50t86 33l65.5 13t71 5.5t63 -17t41.5 -54.5q9 -32 14.5 -66.5t7.5 -66.5h4v0z" />
    <glyph glyph-name="eight" unicode="8" horiz-adv-x="479" 
d="M452 450q0 -17 -12 -37t-30 -41t-40 -41.5t-41.5 -36.5t-34.5 -27l-19 -14q24 -23 42 -48q15 -21 27 -46t8 -48q-8 -51 -50.5 -76t-102.5 -30q-30 -4 -56 -1t-46 12t-32.5 25t-15.5 37q-5 42 9 81.5t64 84.5q-28 13 -49 31q-18 15 -33.5 37t-13.5 51q3 28 23 49.5
t48.5 37t60.5 24.5t58 12q25 3 64.5 7t77 3t65.5 -11t29 -35zM256 114q6 14 -2.5 28.5t-21.5 26.5q-15 14 -36 28q-19 -14 -33 -28q-12 -12 -22.5 -25t-8.5 -23q0 -20 17 -33.5t47 -13.5q28 0 40 12.5t20 27.5zM306 380q3 6 -5.5 8t-22 1.5t-28 -3t-24.5 -3.5
q-11 -2 -24.5 -6t-24 -9.5t-16 -12.5t-2.5 -15q4 -9 7 -15t7.5 -10t12 -5t19.5 0q16 1 33 10t31.5 20t24 22.5t12.5 17.5z" />
    <glyph glyph-name="nine" unicode="9" horiz-adv-x="400" 
d="M375 314q-5 -54 -4 -100.5t3.5 -83t4 -61.5t-3.5 -35q-11 -20 -37 -28.5t-55 -0.5q-25 7 -29 37t6 63q5 15 9.5 34.5t7 38t1 34.5t-7.5 25q-13 -10 -31 -17q-15 -6 -37 -10t-50 0q-26 4 -53 16t-47.5 30t-32 41.5t-6.5 49.5t21.5 51.5t42 46.5t57.5 35t69 16
q37 3 69.5 -5.5t56.5 -30t36.5 -57.5t9.5 -89zM209 311q10 4 23 10.5t23.5 15t17 19t4.5 22.5q-3 13 -12.5 21t-23.5 11t-30.5 0t-31.5 -12q-15 -8 -28.5 -16t-22 -16.5t-10.5 -18.5t4 -20q12 -17 38 -20.5t49 4.5z" />
    <glyph glyph-name="colon" unicode=":" horiz-adv-x="279" 
d="M179 312q-16 -8 -31.5 -8.5t-28.5 4t-23 12t-16 13.5q-8 7 -13.5 18.5t-5 25.5t8.5 28t26 25q19 12 32.5 16t24.5 2.5t20.5 -9t21.5 -18.5q13 -10 19.5 -24t5 -29t-11.5 -29.5t-29 -26.5zM185 161q24 -19 28 -37t-5 -33t-26 -26.5t-35 -17.5q-19 -7 -35.5 -1t-28 19
t-15.5 30t1 33t18.5 27t30.5 15.5t35 2.5t32 -12z" />
    <glyph glyph-name="semicolon" unicode=";" horiz-adv-x="211" 
d="M110 -40q-20 -36 -45 -65.5t-48.5 -50.5t-43.5 -31.5t-29 -8.5q-17 5 -16 24t23 42q11 12 18.5 22.5t15 22.5l15.5 25.5l19 31.5q10 18 18 41t15 46l14 44t17 35q10 13 23.5 18t26.5 3t23 -10t13 -20q4 -12 -0.5 -33t-13.5 -45t-21 -48t-24 -43zM158 312
q-16 -8 -31.5 -8.5t-28.5 4t-23 12t-16 13.5q-8 7 -13.5 18.5t-5 25.5t8.5 28t26 25q19 12 32.5 16t24.5 2.5t20.5 -9t21.5 -18.5q13 -10 19.5 -24t5 -29t-11.5 -29.5t-29 -26.5z" />
    <glyph glyph-name="equal" unicode="=" horiz-adv-x="437" 
d="M261 310q-48 0 -98 -4t-97 -6q-24 -1 -35.5 11.5t-13.5 28.5t5.5 31t21.5 20t40 5.5t58.5 0t69.5 -1t74 2.5q38 3 63.5 0.5t41 -10t22 -19t6.5 -25.5q-2 -14 -20.5 -21t-43.5 -9.5t-51.5 -2.5t-42.5 -1zM308 115q-20 -2 -44.5 -3t-51 -3.5t-53 -5.5t-49.5 -8
q-25 -3 -41 1t-25 12.5t-12.5 20t-3.5 23.5q2 26 21.5 34t48.5 10q15 0 30 -1t32 -1.5t37 0t45 2.5q26 3 54.5 5.5t53.5 0.5t42 -10t20 -27q3 -20 -7 -30t-26.5 -14t-36 -4.5t-34.5 -1.5z" />
    <glyph glyph-name="Euro" unicode="&#x20ac;" horiz-adv-x="537" 
d="M482 218q17 -2 28 -11.5t18 -20.5q8 -12 13 -27q-13 -21 -36 -44q-20 -20 -53 -43t-84 -46t-97.5 -23t-83.5 10.5t-61.5 24.5t-31.5 19q-7 6 -16.5 17.5t-16 32.5t-7.5 53.5t10 80.5q-6 0 -9 -1.5t-8 -1.5q-21 -1 -33.5 5t-16 16t1.5 22t20 23q8 5 27 9.5t45 4.5
q22 44 56 76t71 53.5t70.5 33.5t54.5 16q24 5 44 -4t34 -23q17 -16 30 -38q0 -29 3 -53q1 -14 3 -27q-12 -13 -26 -17q-12 -4 -29.5 0.5t-37.5 27.5q-17 18 -37 21t-41 -4.5t-41 -23t-36 -35.5q42 -2 79 -7.5t52 -12.5q19 -10 20.5 -20.5t-8 -19.5t-26.5 -14.5t-35 -5.5
h-124q-2 -7 -2.5 -14t-0.5 -12q26 -2 56 -6t47 -6t24 -8t6.5 -12.5t-9 -12.5t-21.5 -8q-12 -5 -39 -8t-53 -3q13 -18 34 -30t55 -12q42 2 81 19t70 37q35 24 67 53z" />
    <glyph glyph-name="less" unicode="&#x3c;" horiz-adv-x="475" 
d="M107 291l98 -56l39 -22.5l37 -21l30.5 -17.5t21.5 -12l35.5 -20t41 -25t33 -24.5t10.5 -18.5q-8 -15 -45 -2t-100 42l-50.5 22l-61.5 27.5l-64 30.5t-57 31.5t-40 29.5t-14 26q2 16 16.5 31.5t37 28.5t50 23.5t54.5 18.5q19 6 44.5 16l52.5 20.5t54 20t49 15t37 5.5
t18 -8q5 -14 -3 -24.5t-23 -19t-34.5 -16l-37.5 -14.5q-10 -4 -25 -9.5l-33 -12.5l-37.5 -14.5l-38.5 -14.5z" />
    <glyph glyph-name="greater" unicode="&#x3e;" horiz-adv-x="466" 
d="M368 300l-98 37q-20 7 -40 15l-38.5 15l-33.5 13l-25 10l-38 14.5t-35.5 16t-23.5 19t-2 24.5q3 9 18 9t37.5 -5.5t49.5 -15t55 -20.5l53.5 -21t44.5 -16q28 -9 56.5 -20t51.5 -24.5t38 -28.5t17 -32q1 -12 -14.5 -26.5t-41 -30t-58 -32t-65.5 -31l-63.5 -28l-51.5 -22.5
q-64 -29 -102 -43t-46 1q-3 7 10.5 19t33.5 25t41.5 25l36.5 21l21.5 12l32.5 18l38 21.5l40 22.5z" />
    <glyph glyph-name="copyright" unicode="&#xa9;" horiz-adv-x="502" 
d="M495 322q8 -63 -11 -119.5t-55.5 -100t-85 -71t-98.5 -32.5l-8 6q-45 -4 -81 8.5t-63.5 35.5t-46 54t-28.5 64t-12.5 66.5t3.5 61.5q8 42 39.5 78t74.5 63t90.5 43.5t88.5 19.5q42 1 75.5 -11.5t58 -36.5t39.5 -57t20 -72zM245 69q30 1 62 17.5t57.5 45t39.5 67t10 85.5
q-5 46 -19 75t-32.5 44.5t-38 20t-34.5 2.5q-10 0 -29 -5t-42.5 -15t-48 -24.5t-45.5 -33.5t-35 -42t-15 -50q-2 -42 11 -77t36 -60t55 -38.5t68 -11.5zM332 295q-6 -6 -14 -8q-7 -2 -15.5 1t-19.5 15t-24 12t-26 -7t-24.5 -19.5t-18.5 -25.5q-7 -14 -9.5 -30t2 -29.5
t16 -21.5t32.5 -7q21 0 41 8t36 19q18 11 35 27q9 -2 14.5 -7t9.5 -10q4 -6 7 -14q-7 -12 -18 -23q-10 -10 -27 -22.5t-43 -23.5q-27 -12 -51 -12t-43 5.5t-31 12.5t-16 10q-3 3 -8.5 10t-9 19.5t-3 32.5t8.5 49q8 28 26.5 49t39.5 35t40.5 21.5t31.5 10.5q13 2 23.5 -2
t18.5 -11q9 -8 16 -19v-15.5t1 -14.5q1 -8 2 -15z" />
    <glyph glyph-name="registered" unicode="&#xae;" horiz-adv-x="499" 
d="M363 184q1 -6 -0.5 -14t-5 -13.5t-10.5 -8t-17 2.5q-11 3 -28 9.5l-34.5 13l-32 12t-21.5 7.5q-14 3 -17 2t-4 -2q0 -17 -1 -30q-1 -11 -1.5 -21t-2.5 -12q-4 -5 -11 -8t-19 -1q-13 2 -13.5 16.5t1.5 25.5q4 46 8 84q1 16 2.5 32t3 28.5t3 21.5t2.5 11q1 3 11 11
t23.5 15.5t29.5 12t31 1.5q30 -5 47.5 -29t8.5 -58q-4 -17 -12 -28t-17 -17q-11 -8 -22 -11q21 -8 39 -14q15 -5 27.5 -10t12.5 -6q0 -2 9.5 -6.5t9.5 -16.5zM223 258q3 -1 10.5 2t15 7.5t15 9.5t10.5 9q9 9 4.5 22.5t-18.5 22.5q-7 5 -15.5 3.5t-17 -6t-14 -9.5t-6.5 -7
q-2 -2 -3 -9.5l-2 -15.5l-2 -22q5 -2 9 -4q7 -3 14 -3zM489 321q8 -62 -11 -117t-54.5 -97.5t-83 -69.5t-96.5 -31l-7 5q-44 -4 -79.5 8.5t-62 35t-44.5 52.5t-28.5 63t-12.5 65.5t3 60.5q8 41 38.5 76t72.5 61t89 42t87 19q40 2 73 -10.5t57 -36t39 -56t20 -70.5zM244 74
q30 1 61 17t55.5 43.5t39 66t10.5 83.5q-5 45 -19 73.5t-32 44t-37.5 20t-33.5 2.5q-9 -1 -28 -6t-42 -14.5t-47 -24t-44.5 -33t-34 -41t-14.5 -49.5q-2 -41 10.5 -75.5t35 -58.5t53.5 -37t67 -11z" />
    <glyph glyph-name="fraction" unicode="&#x2044;" horiz-adv-x="467" 
d="M145 248l40 65l37 59.5l38 58.5l37 57.5l36 55l30 44t20 23.5q17 6 30.5 10t23.5 -8l8 -12.5t4.5 -16t-3.5 -23t-16 -31.5q-8 -13 -34 -49l-61 -84.5l-75 -103l-75.5 -102.5l-61.5 -84t-34 -48q-23 -35 -38.5 -51t-29.5 -4q-5 4 0.5 20t16.5 38t25.5 48.5t30 52l29.5 48
t22 37.5z" />
    <glyph glyph-name="i" unicode="i" horiz-adv-x="209" 
d="M95 0q-16 -2 -26.5 3t-16.5 14t-8 21.5t-2 25.5q1 8 2 35t3 63.5t3.5 78t3.5 78t3 64.5t2 38q2 33 11 50.5t32 19.5q26 2 37.5 -12.5t16.5 -46.5q1 -11 1.5 -39t1 -64.5t1 -77t0.5 -76.5v-63.5v-37.5q0 -27 -13.5 -47.5t-51.5 -26.5zM109 528q-17 8 -25 25.5t-6 34.5
q4 20 20 30.5t32 10.5q17 2 26.5 -12.5t9.5 -34.5q0 -10 -2.5 -21.5t-8.5 -20.5t-17 -13t-29 1z" />
    <glyph glyph-name="M" unicode="M" horiz-adv-x="641" 
d="M169 24q-4 -7 -11 -12q-6 -5 -15 -8t-22 -1q-26 5 -40 13.5t-14 34.5q0 14 -1.5 50.5t-4.5 81t-8 89t-11 73.5q-12 57 -17.5 90t7.5 47q8 5 18 10t22.5 5.5t26.5 -7t29 -26.5q14 -19 38 -47.5t49 -55t47 -45.5t33 -19q20 3 51 27.5t62 54.5q15 17 30 27.5t26 16.5
q13 7 26 11q17 6 33 8q14 2 27 -2.5t21 -19.5q8 -17 12 -41t6 -52.5l4 -59t6 -58.5q3 -29 6.5 -56.5t6 -51.5t3.5 -43t-2 -31q-2 -11 -6.5 -16.5t-11.5 -7.5t-15 -1.5t-15 1.5q-6 0 -15 2.5t-17.5 9.5t-15 19.5t-7.5 33.5q0 20 -3 57t-7 72q-4 41 -10 87q0 3 -3 6
q-2 2 -6 4.5t-12 2.5t-21 -13.5l-29.5 -31.5t-34.5 -35.5t-34 -25.5q-34 -15 -59 -9t-54 27q-13 10 -25.5 24l-24.5 26.5t-22.5 21.5t-19.5 9t-10.5 -22t1.5 -51.5t8.5 -57.5t10.5 -40q4 -13 10 -27.5t9.5 -27.5t3.5 -24t-9 -16z" />
    <glyph glyph-name="V" unicode="V" horiz-adv-x="483" 
d="M261 224q18 38 41 72.5t45.5 62t41.5 46t29 26.5q18 15 38 21.5t55 -8.5q16 -7 20 -18t0 -22.5t-12 -20.5t-14 -13l-21 -21l-36.5 -37.5t-41.5 -46t-35 -48.5t-25 -59.5t-19 -69t-14.5 -58t-11.5 -25.5q-10 -5 -23.5 -2.5t-33.5 20.5q-6 5 -23.5 30t-40.5 61l-49 78
l-50 82l-42.5 72.5t-25.5 48.5q-11 25 -12.5 41.5t4.5 28t19.5 18t32.5 11.5q17 5 27 2t18.5 -18t20 -42.5t31.5 -71.5q21 -46 40.5 -73t34.5 -42q18 -18 32 -25z" />
    <glyph glyph-name="slash" unicode="/" horiz-adv-x="353" 
d="M142 249l40 64l36.5 59.5l36.5 58.5l38 56.5l36 55l30 44t20 23.5q17 7 30 10.5t22 -8.5l8 -12.5t5 -16t-3 -22.5t-16 -32q-8 -12 -34 -48.5l-61 -84.5l-74.5 -102l-74.5 -102l-61 -84l-34 -47q-23 -35 -38.5 -51t-29.5 -5q-5 5 0.5 20.5t16.5 38t25.5 48.5l30 51.5
l29.5 48t22 37.5z" />
    <glyph glyph-name="B" unicode="B" horiz-adv-x="378" 
d="M365 182q18 -47 -15 -85t-98 -69q-32 -15 -70.5 -20.5t-72.5 -6.5q-40 -1 -79 3l-12 42q-5 16 -8 28t-3 11q1 -2 8 -1t15 3q10 2 21 5l-17 139l-6.5 58t-6.5 58.5t-5 53.5t-2 43q49 32 97 45q20 6 42 8t43 -2.5t40.5 -16.5t35.5 -34q17 -26 15 -54t-12 -51
q-11 -27 -33 -53q28 -12 53 -28q21 -14 41 -33t29 -43zM107 307q34 3 59 13q21 8 36.5 24.5t8.5 45.5q-3 14 -9.5 21.5t-15 11t-18.5 3t-20 -2.5q-23 -6 -50 -22zM135 98q46 1 80 8q15 3 28.5 7.5t24 11.5t15.5 16.5t3 21.5q-3 11 -12 18.5t-21 12t-26.5 6.5t-29.5 3
q-34 1 -76 -4z" />
    <glyph glyph-name="at" unicode="@" horiz-adv-x="656" 
d="M454 199q30 -3 55 4q20 6 37.5 23t17.5 53q0 27 -8.5 63.5t-31 68.5t-62.5 54.5t-103 22.5q-77 0 -128.5 -25.5t-82 -69t-43 -100t-12.5 -117.5q0 -40 18.5 -71.5t51 -53.5t76 -34t93.5 -12q40 0 70.5 4.5t54 11.5t40.5 15.5t31 17.5l26.5 15t25 10.5t18.5 -2.5t9 -22
t-18.5 -37t-56 -38t-82.5 -30t-98 -12q-48 0 -104 12.5t-104 40t-80.5 72t-32.5 107.5q0 111 30 184t78 116t108.5 60.5t120.5 17.5q54 0 103.5 -19.5t87 -55t57 -85t13.5 -108.5t-32 -93t-56 -51.5t-55 -22.5t-29 -5q-5 0 -11.5 0.5t-12.5 2.5q-7 2 -15 4q-6 -4 -19 -8
q-11 -4 -33 -8t-57 -8q-36 -4 -60.5 4.5t-39.5 24.5t-22 38t-8 46t3.5 45t17 39.5t34 35.5t55.5 35q35 18 63 14.5t49 -14.5q24 -13 44 -37zM249 216q0 -17 19.5 -26.5t42.5 -11.5t43 4t21 19l-4 85q-35 -1 -61 -9q-23 -7 -42 -21t-19 -40z" />
    <glyph glyph-name="A" unicode="A" horiz-adv-x="436" 
d="M298 1l-10.5 58.5t-8.5 57.5q-8 6 -31 16.5t-54 13.5q-26 0 -50.5 -4t-38.5 -8q-11 -29 -19.5 -53.5t-14.5 -43.5q-7 -22 -12 -40l-111 3q11 59 30 112t43 99.5t51 86t53 71.5q62 75 132 131q32 -2 50 -9t27 -15q10 -10 12 -21q1 -35 5.5 -73t10 -77t12.5 -77t14 -72
q17 -80 37 -159zM152 236q9 3 22 6t28 3t31.5 -3.5t31.5 -13.5q-3 32 -5 60.5t-4 49.5q-2 25 -3 44q-31 -31 -56 -69t-45 -77z" />
    <glyph glyph-name="F" unicode="F" horiz-adv-x="375" 
d="M41 84v278q-14 9 -23 22q-8 11 -12 27.5t4 37.5q6 14 32 24.5t62.5 18t79.5 11.5t83 4t72 -3.5t46 -11.5q21 -12 26 -29t-0.5 -32.5t-19 -26.5t-30.5 -11q-17 2 -51.5 1.5t-70.5 -3.5t-64.5 -10t-32.5 -19q-4 -13 -6.5 -32t-2.5 -37t3 -30.5t10 -11.5q8 0 28.5 -1t43 -6
t42 -15.5t24.5 -30.5q10 -41 -6.5 -55t-55.5 -14q-21 1 -33 -1.5t-18.5 -6.5t-8.5 -8.5t-2 -7.5t-0.5 -19.5t-1.5 -35.5l-2 -50q-42 -3 -75 -1q-29 2 -53 7t-25 19q0 29 12.5 45.5t25.5 13.5z" />
    <glyph glyph-name="braceleft" unicode="{" horiz-adv-x="298" 
d="M168 193q25 -23 29.5 -54.5t-0.5 -65t-15 -65t-14 -53.5q-4 -23 -3.5 -35t6.5 -17t16.5 -4.5t27.5 4.5q16 4 28.5 9.5t24 7.5t24 -0.5t29.5 -13.5q32 -23 10 -56.5t-89 -59.5q-34 -14 -63.5 -9t-52 20t-37.5 35t-20 37q-5 18 -3 49.5t8 66t13 67.5t11 54q4 20 -4.5 33
t-21 22.5l-25 19t-16.5 22.5q-9 26 9 38.5t53 26.5q17 7 24.5 24t7 38t-7.5 43.5t-19 40.5l-21.5 33.5t-15.5 28.5t-9.5 29t-4.5 34q-1 13 10 23t28 17t38.5 10t42 1t37.5 -9t26 -20q13 -20 1 -29t-32.5 -13.5t-41.5 -6t-26 -5.5t-0.5 -9.5l15 -18t25.5 -35t32 -59.5
q16 -38 13 -73.5t-14 -62.5q-12 -32 -33 -60z" />
    <glyph glyph-name="braceright" unicode="}" horiz-adv-x="317" 
d="M144 204q-21 28 -33 60q-5 13 -9 29t-5 33.5t2 36t11 37.5q16 37 31.5 59.5t26.5 34.5t15.5 17.5t-1.5 9.5q-5 4 -26 6t-41.5 6.5t-32 13.5t2.5 28q13 20 43.5 26.5t61.5 2.5t54.5 -17.5t22.5 -32.5t-5 -34t-10 -29t-15 -29t-21 -33q-13 -19 -20 -41.5t-7.5 -43.5t7 -38
t24.5 -24q35 -14 53.5 -26.5t10.5 -39.5q-4 -13 -17 -22t-25.5 -19t-21.5 -23t-4 -33q4 -21 11 -54t13 -68t8 -66.5t-4 -48.5q-5 -17 -20 -37.5t-38 -35.5t-52.5 -20.5t-63.5 7.5q-34 14 -56.5 29.5t-33 31.5t-8 30.5t19.5 26.5q16 12 28.5 14.5t24.5 0t24.5 -7.5t28.5 -9
t27 -4.5t16.5 4.5t6 17t-3.5 34t-13.5 54t-15 65.5t-0.5 65.5t29 56z" />
    <glyph glyph-name="bar" unicode="|" horiz-adv-x="153" 
d="M69 5q-12 -3 -19.5 2t-12 15t-6 22.5t-1.5 24.5q0 8 1.5 35.5t2.5 64.5t2.5 79t2.5 79.5t2 66t1 38.5q2 32 8 49.5t23 19.5q18 4 26.5 -11.5t12.5 -47.5q0 -11 0.5 -39.5t1 -65t0.5 -78v-78v-64.5v-38q0 -28 -9 -48t-36 -26z" />
    <glyph glyph-name="asciitilde" unicode="~" horiz-adv-x="362" 
d="M288 250q-1 14 -7 23.5t-27 23.5q-10 7 -19.5 6t-20 -8.5t-23.5 -20l-31 -28.5t-37 -17t-35.5 6t-29.5 17.5t-21 18.5t-9.5 20t2.5 23t13 19.5t22 9.5t18.5 -3t9.5 -10t8 -13t13 -12t13 -5t9 4.5t12.5 13.5t23.5 23q32 27 58 28.5t57 -11.5q29 -13 43.5 -42t8.5 -61
q-3 -16 -11 -21t-16.5 -3.5t-15.5 7.5t-8 12z" />
    <glyph glyph-name="AE" unicode="&#xc6;" horiz-adv-x="848" 
d="M356 1l-10.5 58.5t-8.5 57.5q-8 6 -31 16.5t-54 13.5q-26 0 -50.5 -4t-38.5 -8q-11 -29 -19.5 -53.5t-14.5 -43.5q-7 -22 -12 -40l-111 3q11 59 30 112t43 99.5t51 86t53 71.5q62 75 132 131q32 -2 50 -9t27 -15q10 -10 12 -21q1 -35 5.5 -73t10 -77t12.5 -77t14 -72
q17 -80 37 -159zM210 236q9 3 22 6t28 3t31.5 -3.5t31.5 -13.5q-3 32 -5 60.5t-4 49.5q-2 25 -3 44q-31 -31 -56 -69t-45 -77zM763 480q3 -12 3 -23q0 -10 -3.5 -22t-13.5 -22q-12 -9 -41 -8t-63 2.5t-65.5 0t-47.5 -15.5q-16 -16 -18 -34t2 -34q4 -18 16 -37q29 4 55 3
q22 -1 43.5 -6t30.5 -18q8 -13 8 -24.5t-5 -20.5q-5 -11 -14 -20l-135 -17q-7 -8 -8 -19q-2 -9 2.5 -20.5t18.5 -24.5q17 -16 39.5 -21t48 -2.5t52 11t52.5 19.5q60 26 124 71q11 -5 16 -16.5t6 -22.5q1 -13 -2 -29q-35 -48 -88 -80.5t-112.5 -43t-118.5 3.5t-105 59
q-23 22 -34 49.5t-14.5 57t-0.5 60t9 58.5q15 66 50 135q-19 7 -26 17q-6 8 -1.5 20t34.5 28q15 7 36.5 10.5t46 4t50.5 -1.5t51 -5q58 -8 122 -22z" />
    <glyph glyph-name="Ccedilla" unicode="&#xc7;" horiz-adv-x="457" 
d="M405 349q-12 -12 -25 -14t-26.5 1t-26.5 9t-25 10q-4 19 -20.5 25t-35.5 2t-35 -15t-17 -25q-23 -6 -37.5 -20t-25 -32t-19.5 -37.5t-21 -37.5q4 -7 7.5 -11.5t5.5 -9.5t2 -12t-1 -17q18 -29 44 -42t55.5 -13.5t61 9t61 24.5t55 34t43.5 38q24 -3 37.5 -17.5t18.5 -34.5
q-5 0 -6.5 -3.5t-2.5 -7.5t-2.5 -7.5t-6.5 -3.5q3 -8 7 -16t1 -21q-18 0 -25.5 -9t-12.5 -22q-11 -5 -19 -4.5t-16 -9.5q-3 -5 -0.5 -6t5.5 -1t5.5 -2t0.5 -8q-5 5 -12 5t-14 -1.5t-14 -2t-12 4.5q-8 0 -11.5 -4t-6 -8.5t-6 -8.5t-11.5 -3q5 -5 5.5 -10.5t1 -10t3 -8.5
t11.5 -5q-13 -7 -18.5 -17t-8 -21.5l-5 -24t-9.5 -23.5q-4 -2 -8 -3t-6.5 -3t-3 -5.5t3.5 -9.5q-20 -1 -34 -10l-27.5 -18.5t-28 -15t-34.5 -0.5q-8 16 -6 27t9 19t17 15t18.5 14.5t13.5 18t2 25.5q19 1 23.5 13t-0.5 22.5t-17 14.5t-26 -10q-13 2 -18 7.5t-16 8.5
q-4 -6 -11 -6.5t-14.5 2.5t-14 8t-8.5 10q-6 1 -9.5 -0.5t-6 -4.5t-6 -5t-9.5 0q-3 11 -8.5 14.5t-5.5 15.5h-24q-7 9 -16 24t-16.5 31.5t-12.5 34t-3 31.5q0 6 3 10.5t3 9.5q0 14 -4.5 25t-1.5 25q0 2 5 2h5q8 14 9.5 30t4.5 30q8 5 13.5 11.5t2.5 22.5q21 13 36.5 31
t23.5 44l91.5 49.5t101.5 40.5q33 -5 59.5 -23.5t46.5 -44.5q1 -14 1 -23.5v-18.5t1 -18.5t5 -22.5z" />
    <glyph glyph-name="ae" unicode="&#xe6;" horiz-adv-x="848" 
d="M356 1l-10.5 58.5t-8.5 57.5q-8 6 -31 16.5t-54 13.5q-26 0 -50.5 -4t-38.5 -8q-11 -29 -19.5 -53.5t-14.5 -43.5q-7 -22 -12 -40l-111 3q11 59 30 112t43 99.5t51 86t53 71.5q62 75 132 131q32 -2 50 -9t27 -15q10 -10 12 -21q1 -35 5.5 -73t10 -77t12.5 -77t14 -72
q17 -80 37 -159zM210 236q9 3 22 6t28 3t31.5 -3.5t31.5 -13.5q-3 32 -5 60.5t-4 49.5q-2 25 -3 44q-31 -31 -56 -69t-45 -77zM763 480q3 -12 3 -23q0 -10 -3.5 -22t-13.5 -22q-12 -9 -41 -8t-63 2.5t-65.5 0t-47.5 -15.5q-16 -16 -18 -34t2 -34q4 -18 16 -37q29 4 55 3
q22 -1 43.5 -6t30.5 -18q8 -13 8 -24.5t-5 -20.5q-5 -11 -14 -20l-135 -17q-7 -8 -8 -19q-2 -9 2.5 -20.5t18.5 -24.5q17 -16 39.5 -21t48 -2.5t52 11t52.5 19.5q60 26 124 71q11 -5 16 -16.5t6 -22.5q1 -13 -2 -29q-35 -48 -88 -80.5t-112.5 -43t-118.5 3.5t-105 59
q-23 22 -34 49.5t-14.5 57t-0.5 60t9 58.5q15 66 50 135q-19 7 -26 17q-6 8 -1.5 20t34.5 28q15 7 36.5 10.5t46 4t50.5 -1.5t51 -5q58 -8 122 -22z" />
    <glyph glyph-name="oe" unicode="&#x153;" horiz-adv-x="837" 
d="M238 498q67 3 111 -16.5t70 -55.5t37 -86t11 -108q0 -38 -10 -77.5t-34 -72t-64 -54.5t-101 -26q-45 -3 -87 14t-75 48t-53 74.5t-21 93.5q-2 50 13 97t43 83.5t68.5 60t91.5 25.5zM371 252q1 40 -8.5 67.5t-25.5 45t-35.5 26t-37.5 9.5q-19 1 -43.5 -4.5t-46.5 -21.5
t-37.5 -44.5t-16.5 -73.5q0 -44 12.5 -74t32.5 -48.5t45.5 -27t51.5 -8.5q56 0 81.5 37.5t27.5 116.5zM754 480q3 -12 3 -23q0 -10 -3.5 -22t-13.5 -22q-12 -9 -41 -8t-63 2.5t-65.5 0t-47.5 -15.5q-16 -16 -18 -34t2 -34q4 -18 16 -37q29 4 55 3q22 -1 43.5 -6t30.5 -18
q8 -13 8 -24.5t-5 -20.5q-5 -11 -14 -20l-135 -17q-7 -8 -8 -19q-2 -9 2.5 -20.5t18.5 -24.5q17 -16 39.5 -21t48 -2.5t52 11t52.5 19.5q60 26 124 71q11 -5 16 -16.5t6 -22.5q1 -13 -2 -29q-35 -48 -88 -80.5t-112.5 -43t-118.5 3.5t-105 59q-23 22 -34 49.5t-14.5 57
t-0.5 60t9 58.5q15 66 50 135q-19 7 -26 17q-6 8 -1.5 20t34.5 28q15 7 36.5 10.5t46 4t50.5 -1.5t51 -5q58 -8 122 -22z" />
    <glyph glyph-name="grave" unicode="`" horiz-adv-x="280" 
d="M251 502q-28 9 -54 20q-23 8 -49 18.5l-47 18.5q-45 15 -70.5 33.5t-20.5 41.5q4 13 19 16t34.5 0t41 -9.5l38.5 -11.5q18 -4 36.5 -11.5t35.5 -16.5t30.5 -18.5t22.5 -17.5q8 -8 6.5 -18.5t-6.5 -20.5q-6 -11 -17 -24z" />
    <glyph glyph-name="ring" unicode="&#x2da;" horiz-adv-x="251" 
d="M219 625q3 -23 -4 -43.5t-20 -36t-31 -25.5t-36 -12l-2 2q-25 -2 -42 8.5t-27 27t-13.5 36t-0.5 34.5t14.5 28t26.5 22.5t32.5 15.5t32.5 7q30 2 48.5 -17t21.5 -47zM128 533q11 0 23 6t21 16.5t14 24.5t4 31q-2 17 -7 27.5t-12 16t-14 7.5t-12 1q-5 0 -17.5 -4.5
t-26 -12t-23.5 -19t-11 -26.5q-2 -31 16.5 -50t44.5 -18z" />
    <glyph glyph-name="guillemotleft" unicode="&#xab;" horiz-adv-x="577" 
d="M282 275l82 -69l32.5 -27.5l30.5 -25.5l25.5 -21.5l17.5 -14.5l31 -24.5t34 -30t26.5 -30t8.5 -23.5q-7 -18 -38 -1.5t-82 52.5l-67 43t-79.5 55t-65.5 57.5t-26 49.5t13 39.5t31 34t42 29t47 23.5q24 11 58 31.5t66.5 37.5t57 24t29.5 -9q3 -17 -4 -29.5t-20 -23
t-29.5 -19.5l-32.5 -18l-46 -27.5l-63 -36.5zM71 275l82 -69l32.5 -27.5l31 -25.5l26.5 -21.5l18 -14.5l30 -24.5t34 -30t26.5 -30t8.5 -23.5q-7 -18 -37.5 -1.5t-81.5 52.5l-68 43t-79.5 55t-65.5 57.5t-26 49.5t13 39.5t30.5 34t41.5 29t47 23.5q24 11 58.5 31.5
t66.5 37.5t56.5 24t29.5 -9q3 -17 -4 -29.5t-19.5 -23t-29 -19.5l-31.5 -18l-46.5 -27.5l-63.5 -36.5z" />
    <glyph glyph-name="E" unicode="E" horiz-adv-x="441" 
d="M379 480q3 -12 3 -23q0 -10 -3.5 -22t-13.5 -22q-12 -9 -41 -8t-63 2.5t-65.5 0t-47.5 -15.5q-16 -16 -18 -34t2 -34q4 -18 16 -37q29 4 55 3q22 -1 43.5 -6t30.5 -18q8 -13 8 -24.5t-5 -20.5q-5 -11 -14 -20l-135 -17q-7 -8 -8 -19q-2 -9 2.5 -20.5t18.5 -24.5
q17 -16 39.5 -21t48 -2.5t52 11t52.5 19.5q60 26 124 71q11 -5 16 -16.5t6 -22.5q1 -13 -2 -29q-35 -48 -88 -80.5t-112.5 -43t-118.5 3.5t-105 59q-23 22 -34 49.5t-14.5 57t-0.5 60t9 58.5q15 66 50 135q-19 7 -26 17q-6 8 -1.5 20t34.5 28q15 7 36.5 10.5t46 4t50.5 -1.5
t51 -5q58 -8 122 -22z" />
    <glyph glyph-name="C" unicode="C" horiz-adv-x="456" 
d="M395 351q-12 -13 -26 -17q-13 -4 -30 0.5t-38 26.5t-47 22.5t-51.5 -13t-48 -38t-36.5 -51.5t-18.5 -58t4.5 -56.5t32.5 -42t65.5 -15.5q41 1 79.5 18t69.5 37q36 23 68 52q17 -3 28 -12.5t18 -20.5q8 -12 13 -26q-13 -22 -36 -44q-20 -20 -53 -42.5t-84 -45.5
q-52 -23 -98 -22.5t-82.5 11t-60.5 24.5t-32 19q-8 6 -18.5 18.5t-17.5 37t-6 63t16 95.5q16 56 52 96t77.5 67t81.5 42t63 21q23 5 43 -5t34 -24q17 -16 31 -38q0 -13 0.5 -27t2.5 -25z" />
    <glyph glyph-name="D" unicode="D" horiz-adv-x="439" 
d="M130 491q16 -9 46 -23.5t65.5 -34t72 -44t65 -55t45 -66.5t12.5 -77q-4 -42 -34 -72.5t-73.5 -52t-93.5 -35t-93.5 -20.5t-73.5 -9t-34 0q-6 2 -12.5 12t-11.5 21t-8 19t-1 7q1 -2 12 5.5l24 16.5l33 25q-4 76 -8 137q-2 26 -3 51t-2 45t-1 32.5t1 14.5q-1 1 -6.5 5.5
t-11 11t-9 13.5t-0.5 12t9.5 19.5t18 28t29.5 19.5t43 -6zM216 144q14 5 37.5 16t46.5 23.5t39 24.5t15 20q-2 7 -13 28.5t-35 46t-63 45.5t-97 29v-10t1 -26.5t2 -37.5t3 -43l8 -116q5 -4 13 -6q7 -2 17.5 -1.5t25.5 7.5z" />
    <glyph glyph-name="Z" unicode="Z" horiz-adv-x="589" 
d="M335 404q2 1 -22 -4.5t-60 -14.5l-77 -20l-72 -20q-65 -18 -96.5 -7t-20.5 57q5 21 33 36t67.5 27t86 21.5l88.5 18.5l62.5 11.5t69.5 11t68 5.5t57.5 -4t38.5 -18.5t11 -37.5q-3 -25 -19 -49.5t-41 -47.5t-54.5 -45t-58.5 -41.5l-54.5 -37t-41.5 -32.5
q-25 -21 -35.5 -37t-13.5 -27q-4 -12 -1 -21q62 13 116 22q23 4 46 7t44 4.5t37.5 1t25.5 -3.5q36 -11 57 -24.5t13 -42.5q-5 -17 -12.5 -27.5t-20 -15.5t-32.5 -5t-48 3t-60 0.5t-62.5 -7.5t-58 -11t-46.5 -9q-21 -6 -51.5 -12.5t-59.5 -5t-51 14.5t-26 48q-3 34 14.5 60.5
t43 48t52.5 40.5t43 38q17 17 30.5 34t27 36l28.5 39t35 43z" />
    <glyph glyph-name="Y" unicode="Y" horiz-adv-x="486" 
d="M252 298l24 30.5l34.5 45l36.5 49t29 43.5q10 19 29 27.5t38 7t34.5 -13t19.5 -31.5t-6 -41t-27.5 -42t-38.5 -42.5t-39 -42.5q-17 -20 -36.5 -49.5t-37.5 -60.5t-33 -61t-24 -51q-15 -41 -34 -55.5t-59 -12.5q-20 1 -34.5 10.5t-21.5 22.5t-5.5 28t13.5 29l22 32l22 34
l23 36l-51 44l-55.5 45.5t-68.5 51.5q-38 27 -56.5 50t-22.5 41.5t3.5 32t21.5 21.5q31 16 59.5 -0.5t71.5 -59.5q22 -22 51 -42.5l55 -37.5z" />
    <glyph glyph-name="W" unicode="W" horiz-adv-x="779" 
d="M219 164l40.5 35l52.5 45l49 41.5t30 23.5q31 19 90 0q14 -5 32.5 -22t35.5 -35q19 -21 39 -47q9 5 21 24.5t24.5 45t23.5 53t17 49.5q6 21 14.5 42t17.5 37.5t19 27t21 10.5q19 0 32.5 -15.5t16.5 -35.5q2 -21 -8 -75.5t-45 -145.5l-33.5 -85t-31.5 -70.5t-35 -48.5
t-43 -19q-26 -3 -42 5t-26 22t-15.5 31.5l-10.5 34.5q-4 17 -16.5 35.5t-26.5 34.5q-16 18 -35 36q-12 -1 -25.5 -11.5t-26 -26t-24.5 -33.5t-21 -35t-15 -34t-15.5 -31t-27 -23t-49.5 -9q-33 0 -53.5 11.5t-32 27.5t-16.5 34t-8 31q-2 12 -14.5 46l-28 74.5l-31 78
l-22.5 55.5l-15 34t-11.5 30.5t-5.5 28.5t4 28q5 13 13.5 18.5t19 7t22 -0.5t22.5 -5q10 -1 18.5 -14t17.5 -34t18 -47t21 -53l25 -57.5l26 -59.5z" />
    <glyph glyph-name="K" unicode="K" horiz-adv-x="460" 
d="M38 448q3 16 7 27t12.5 15.5t21.5 1.5t33 -14t25.5 -38t3.5 -55q-3 -33 -12 -70q28 3 51 16.5t42 31t35 37l29.5 36t25.5 26.5t24 9q16 -1 23 -12.5t6 -29t-8.5 -37.5t-20.5 -39t-32 -38t-37 -35l-43 -36q5 -10 30 -24.5t58 -22.5q16 -6 36 -11t39.5 -12.5t35.5 -18
t25 -26.5q9 -15 0.5 -29.5t-24 -26t-33.5 -19.5t-28 -10q-10 -3 -30 7.5t-45 25.5l-53 31.5t-55 26.5q-29 11 -42.5 14.5t-18.5 4.5q-6 1 -4 -2q4 -24 7 -46q2 -19 2 -39t-5 -33q-4 -13 -10 -20t-14.5 -10t-18.5 -3.5t-21 -0.5q-12 0 -19 4t-12 9q-5 6 -7 14l5 41
q2 20 4.5 50t4.5 71q0 41 0.5 86.5t2.5 83.5z" />
    <glyph glyph-name="P" unicode="P" horiz-adv-x="330" 
d="M330 339q1 -38 -4 -61t-15 -37t-22.5 -20.5t-26.5 -11.5q-16 -5 -40 -9.5l-47 -8.5q-27 -4 -57 -9q2 -34 4 -64q2 -26 3 -51t1 -36q0 -12 -14 -18.5t-32 -9.5t-34.5 -3.5t-21.5 -0.5q-6 0 -11 4.5t-8.5 11.5t-4.5 16t3 18q2 9 8 12.5t12 5.5q7 2 15 1q-9 35 -15 70
q-5 30 -9.5 65.5t-4.5 67.5q-2 62 6 102.5t36 69.5q13 14 25 23.5t25 16.5t28 10.5t34 5.5q19 1 46 -9.5t53 -31t45.5 -51t22.5 -68.5zM110 279q1 -3 12 -4.5t27 -1t34 3.5t33 10t24 17.5t7 26.5q-8 52 -29 74t-53 11q-14 -5 -27.5 -19.5t-22.5 -34t-11.5 -42t6.5 -41.5z
" />
    <glyph glyph-name="OE" unicode="&#x152;" horiz-adv-x="837" 
d="M238 498q67 3 111 -16.5t70 -55.5t37 -86t11 -108q0 -38 -10 -77.5t-34 -72t-64 -54.5t-101 -26q-45 -3 -87 14t-75 48t-53 74.5t-21 93.5q-2 50 13 97t43 83.5t68.5 60t91.5 25.5zM371 252q1 40 -8.5 67.5t-25.5 45t-35.5 26t-37.5 9.5q-19 1 -43.5 -4.5t-46.5 -21.5
t-37.5 -44.5t-16.5 -73.5q0 -44 12.5 -74t32.5 -48.5t45.5 -27t51.5 -8.5q56 0 81.5 37.5t27.5 116.5zM754 480q3 -12 3 -23q0 -10 -3.5 -22t-13.5 -22q-12 -9 -41 -8t-63 2.5t-65.5 0t-47.5 -15.5q-16 -16 -18 -34t2 -34q4 -18 16 -37q29 4 55 3q22 -1 43.5 -6t30.5 -18
q8 -13 8 -24.5t-5 -20.5q-5 -11 -14 -20l-135 -17q-7 -8 -8 -19q-2 -9 2.5 -20.5t18.5 -24.5q17 -16 39.5 -21t48 -2.5t52 11t52.5 19.5q60 26 124 71q11 -5 16 -16.5t6 -22.5q1 -13 -2 -29q-35 -48 -88 -80.5t-112.5 -43t-118.5 3.5t-105 59q-23 22 -34 49.5t-14.5 57
t-0.5 60t9 58.5q15 66 50 135q-19 7 -26 17q-6 8 -1.5 20t34.5 28q15 7 36.5 10.5t46 4t50.5 -1.5t51 -5q58 -8 122 -22z" />
    <glyph glyph-name="ccedilla" unicode="&#xe7;" horiz-adv-x="457" 
d="M484 158q-11 -18 -29 -36q-16 -16 -41.5 -36.5t-64.5 -40.5q0 -16 -4 -33t-10 -36q-10 -36 -34 -65t-50.5 -47t-49 -23.5t-30.5 4.5q-9 10 -5.5 22t13.5 25t23 28t23 33q12 12 15 25t3 29q-40 -6 -74 -1t-60.5 15t-44.5 21t-24 16q-8 5 -18.5 18t-16.5 37.5t-5 63
t17 95.5q15 55 50.5 95t76.5 66.5t80.5 41.5t63.5 20q23 5 42.5 -4.5t33.5 -23.5q17 -16 30 -37q0 -14 0.5 -28.5t2.5 -25.5q2 -14 4 -26q-12 -13 -26 -17q-13 -4 -30 0.5t-37 26.5q-21 22 -46.5 22.5t-51 -13t-47.5 -37.5t-36 -51t-18.5 -57.5t4 -56t31.5 -42t64 -14.5
q42 1 80.5 17t69.5 36q36 23 68 52q17 -3 27.5 -12t17.5 -20q8 -12 13 -26z" />
    <glyph glyph-name="dieresis" unicode="&#xa8;" horiz-adv-x="256" 
d="M116 581q-3 -20 -15.5 -30t-28 -12t-30 4t-21.5 19q-6 13 -5 26t7.5 23.5t17 17t23.5 6.5q29 2 41.5 -14.5t10.5 -39.5zM239 583q-3 -20 -15.5 -30t-27.5 -11.5t-29 5t-20 19.5q-7 13 -6 26t7 23t16.5 16.5t23.5 6.5q28 3 41 -14t10 -41z" />
    <glyph glyph-name="b" unicode="b" horiz-adv-x="378" 
d="M365 182q18 -47 -15 -85t-98 -69q-32 -15 -70.5 -20.5t-72.5 -6.5q-40 -1 -79 3l-12 42q-5 16 -8 28t-3 11q1 -2 8 -1t15 3q10 2 21 5l-17 139l-6.5 58t-6.5 58.5t-5 53.5t-2 43q49 32 97 45q20 6 42 8t43 -2.5t40.5 -16.5t35.5 -34q17 -26 15 -54t-12 -51
q-11 -27 -33 -53q28 -12 53 -28q21 -14 41 -33t29 -43zM107 307q34 3 59 13q21 8 36.5 24.5t8.5 45.5q-3 14 -9.5 21.5t-15 11t-18.5 3t-20 -2.5q-23 -6 -50 -22zM135 98q46 1 80 8q15 3 28.5 7.5t24 11.5t15.5 16.5t3 21.5q-3 11 -12 18.5t-21 12t-26.5 6.5t-29.5 3
q-34 1 -76 -4z" />
    <glyph glyph-name="c" unicode="c" horiz-adv-x="456" 
d="M395 351q-12 -13 -26 -17q-13 -4 -30 0.5t-38 26.5t-47 22.5t-51.5 -13t-48 -38t-36.5 -51.5t-18.5 -58t4.5 -56.5t32.5 -42t65.5 -15.5q41 1 79.5 18t69.5 37q36 23 68 52q17 -3 28 -12.5t18 -20.5q8 -12 13 -26q-13 -22 -36 -44q-20 -20 -53 -42.5t-84 -45.5
q-52 -23 -98 -22.5t-82.5 11t-60.5 24.5t-32 19q-8 6 -18.5 18.5t-17.5 37t-6 63t16 95.5q16 56 52 96t77.5 67t81.5 42t63 21q23 5 43 -5t34 -24q17 -16 31 -38q0 -13 0.5 -27t2.5 -25z" />
    <glyph glyph-name="d" unicode="d" horiz-adv-x="439" 
d="M130 491q16 -9 46 -23.5t65.5 -34t72 -44t65 -55t45 -66.5t12.5 -77q-4 -42 -34 -72.5t-73.5 -52t-93.5 -35t-93.5 -20.5t-73.5 -9t-34 0q-6 2 -12.5 12t-11.5 21t-8 19t-1 7q1 -2 12 5.5l24 16.5l33 25q-4 76 -8 137q-2 26 -3 51t-2 45t-1 32.5t1 14.5q-1 1 -6.5 5.5
t-11 11t-9 13.5t-0.5 12t9.5 19.5t18 28t29.5 19.5t43 -6zM216 144q14 5 37.5 16t46.5 23.5t39 24.5t15 20q-2 7 -13 28.5t-35 46t-63 45.5t-97 29v-10t1 -26.5t2 -37.5t3 -43l8 -116q5 -4 13 -6q7 -2 17.5 -1.5t25.5 7.5z" />
    <glyph glyph-name="f" unicode="f" horiz-adv-x="375" 
d="M41 84v278q-14 9 -23 22q-8 11 -12 27.5t4 37.5q6 14 32 24.5t62.5 18t79.5 11.5t83 4t72 -3.5t46 -11.5q21 -12 26 -29t-0.5 -32.5t-19 -26.5t-30.5 -11q-17 2 -51.5 1.5t-70.5 -3.5t-64.5 -10t-32.5 -19q-4 -13 -6.5 -32t-2.5 -37t3 -30.5t10 -11.5q8 0 28.5 -1t43 -6
t42 -15.5t24.5 -30.5q10 -41 -6.5 -55t-55.5 -14q-21 1 -33 -1.5t-18.5 -6.5t-8.5 -8.5t-2 -7.5t-0.5 -19.5t-1.5 -35.5l-2 -50q-42 -3 -75 -1q-29 2 -53 7t-25 19q0 29 12.5 45.5t25.5 13.5z" />
    <glyph glyph-name="g" unicode="g" horiz-adv-x="581" 
d="M431 393q0 -4 -4 -9q-3 -5 -9.5 -10.5t-18.5 -12.5q-11 -7 -20.5 -1.5t-16.5 13.5q-9 10 -15 24q-31 -6 -62 -16q-26 -9 -56 -23t-53 -35q-25 -21 -40 -55t-10.5 -69t33 -64t90.5 -39q30 -5 54 -3t43 9t33 17.5t24 22.5q24 28 34 67q-23 -3 -44 -5q-18 -2 -38 -3.5
t-33 -1.5t-18 8t-6 19.5t0 24.5t0 24q-3 9 7.5 14t29 7.5t44.5 3.5t55 2q28 1 55 0t48.5 -3t37.5 -5t22 -5q6 -3 8 -9.5t1.5 -15t-3 -18t-3.5 -17.5q-2 -7 -12.5 -11.5t-23.5 -8.5q-15 -4 -33 -7q13 -44 20 -81q6 -32 6.5 -62t-12.5 -42q-14 -13 -33 -15.5t-36 -0.5
q-20 2 -42 9q-1 5 -2 11q-1 5 -2 11t-3 13q0 6 -3 7t-6 -1q-4 -2 -9 -6q-13 -9 -31 -18q-15 -8 -36.5 -15t-50.5 -9q-19 -2 -46.5 -1t-57.5 7t-60 18.5t-54.5 34t-41 53.5t-19.5 77q-3 44 12.5 83t42.5 71.5t61.5 59t70 46t69 31t57.5 15.5q37 4 58 -12.5t32 -36.5
q12 -25 16 -56z" />
    <glyph glyph-name="h" unicode="h" horiz-adv-x="514" 
d="M504 479q5 -23 6 -47.5t-1.5 -53t-7.5 -61l-11 -72.5q-8 -39 -10 -72t-2 -59.5t1 -45.5t0 -30t-18 -18.5t-39.5 -11t-44.5 -2.5t-33 7q-10 7 -14.5 16.5t-2.5 28.5t12 49.5t30 78.5q0 3 2 5l2 2l-69.5 -7.5t-75.5 -9.5q-37 -5 -61 -9.5t-40 -4.5q-2 -45 -5.5 -81.5
t-8.5 -49.5q-8 -21 -29.5 -30.5t-52.5 -4.5q-16 3 -22.5 16.5t-6 35t6.5 48t15 55.5q6 19 11.5 49.5l11.5 65.5t11.5 70.5t11 65.5t11.5 51t12 26q9 8 20 8t22 -3q11 -4 24 -12q7 -17 10 -39t1.5 -46t-6.5 -47.5t-13 -42.5q-2 -3 -3 -7t-4 -8q9 -4 25 -8t36.5 -6t44.5 -1.5
t50 5.5l57 13.5t40 7.5q7 60 3.5 103t-3.5 56q0 9 6 18t15 15.5t19 11t18 4.5t16 -3.5t16 -7.5q9 -5 17 -11z" />
    <glyph glyph-name="j" unicode="j" horiz-adv-x="424" 
d="M304 415q19 -17 40.5 -41.5t39.5 -54t29.5 -62.5t11.5 -67q0 -41 -15.5 -76t-42.5 -60.5t-63.5 -39.5t-78.5 -14t-74 11t-53 28.5t-32 38t-11 40.5q0 21 7.5 36.5t19.5 25.5t27 15t29 5q31 0 43.5 -16t12.5 -35q0 -11 -5 -18.5t-11 -12.5q-7 -6 -16 -10q30 -21 59.5 -21
t53.5 12.5t38.5 32.5t14.5 38q-2 18 -3 30t-6.5 25.5t-17.5 32.5t-35 50q-23 37 -49.5 56.5t-47.5 33.5q-36 -11 -61.5 -22t-42.5 -19q-15 -8 -25 -9.5t-16.5 2.5t-11 12.5t-9.5 21.5q-13 26 22.5 51.5t109.5 41.5q35 8 70.5 13t67 7t57 1.5t39.5 -3.5q13 -3 20.5 -13.5
t10 -22.5t0 -23.5t-9.5 -17.5q-8 -7 -19 -8t-22 0q-12 1 -25 5h-20v0z" />
    <glyph glyph-name="k" unicode="k" horiz-adv-x="460" 
d="M38 448q3 16 7 27t12.5 15.5t21.5 1.5t33 -14t25.5 -38t3.5 -55q-3 -33 -12 -70q28 3 51 16.5t42 31t35 37l29.5 36t25.5 26.5t24 9q16 -1 23 -12.5t6 -29t-8.5 -37.5t-20.5 -39t-32 -38t-37 -35l-43 -36q5 -10 30 -24.5t58 -22.5q16 -6 36 -11t39.5 -12.5t35.5 -18
t25 -26.5q9 -15 0.5 -29.5t-24 -26t-33.5 -19.5t-28 -10q-10 -3 -30 7.5t-45 25.5l-53 31.5t-55 26.5q-29 11 -42.5 14.5t-18.5 4.5q-6 1 -4 -2q4 -24 7 -46q2 -19 2 -39t-5 -33q-4 -13 -10 -20t-14.5 -10t-18.5 -3.5t-21 -0.5q-12 0 -19 4t-12 9q-5 6 -7 14l5 41
q2 20 4.5 50t4.5 71q0 41 0.5 86.5t2.5 83.5z" />
    <glyph glyph-name="m" unicode="m" horiz-adv-x="641" 
d="M169 24q-4 -7 -11 -12q-6 -5 -15 -8t-22 -1q-26 5 -40 13.5t-14 34.5q0 14 -1.5 50.5t-4.5 81t-8 89t-11 73.5q-12 57 -17.5 90t7.5 47q8 5 18 10t22.5 5.5t26.5 -7t29 -26.5q14 -19 38 -47.5t49 -55t47 -45.5t33 -19q20 3 51 27.5t62 54.5q15 17 30 27.5t26 16.5
q13 7 26 11q17 6 33 8q14 2 27 -2.5t21 -19.5q8 -17 12 -41t6 -52.5l4 -59t6 -58.5q3 -29 6.5 -56.5t6 -51.5t3.5 -43t-2 -31q-2 -11 -6.5 -16.5t-11.5 -7.5t-15 -1.5t-15 1.5q-6 0 -15 2.5t-17.5 9.5t-15 19.5t-7.5 33.5q0 20 -3 57t-7 72q-4 41 -10 87q0 3 -3 6
q-2 2 -6 4.5t-12 2.5t-21 -13.5l-29.5 -31.5t-34.5 -35.5t-34 -25.5q-34 -15 -59 -9t-54 27q-13 10 -25.5 24l-24.5 26.5t-22.5 21.5t-19.5 9t-10.5 -22t1.5 -51.5t8.5 -57.5t10.5 -40q4 -13 10 -27.5t9.5 -27.5t3.5 -24t-9 -16z" />
    <glyph glyph-name="n" unicode="n" horiz-adv-x="529" 
d="M63 41q0 38 -2 76q-2 32 -4.5 68t-7.5 65q-4 18 -11.5 43l-15 52t-13 53.5t-5.5 48.5t7 37t24 19q26 5 55 -16t57.5 -51.5t54.5 -62.5t46 -49q19 -17 43.5 -41.5t47 -44t40 -27t23.5 10.5q4 12 5.5 35t1 49.5t-0.5 55t1.5 52t6 40.5t14.5 20l28.5 8t27 0.5t21 -17
t10.5 -43.5q2 -20 3 -59.5t-0.5 -87t-5 -97t-10.5 -89.5t-18.5 -65t-27.5 -22q-25 4 -41.5 13.5t-28.5 22t-22 28t-23 30.5q-9 11 -27.5 30.5l-41.5 42l-47.5 45l-45 40t-34 26.5t-14.5 5q-3 -5 0.5 -18.5t9 -31.5l12 -39.5t10.5 -42.5q3 -21 4.5 -46.5t-2.5 -47.5
t-13.5 -37.5t-27.5 -16.5q-17 -3 -29 2t-20 13q-9 9 -14 21z" />
    <glyph glyph-name="o" unicode="o" horiz-adv-x="470" 
d="M228 498q67 3 111 -16.5t70 -55.5t37 -86t11 -108q0 -38 -10 -77.5t-34 -72t-64 -54.5t-101 -26q-45 -3 -87 14t-75 48t-53 74.5t-21 93.5q-2 50 13 97t43 83.5t68.5 60t91.5 25.5zM361 252q1 40 -8.5 67.5t-25.5 45t-35.5 26t-37.5 9.5q-19 1 -43.5 -4.5t-46.5 -21.5
t-37.5 -44.5t-16.5 -73.5q0 -44 12.5 -74t32.5 -48.5t45.5 -27t51.5 -8.5q56 0 81.5 37.5t27.5 116.5z" />
    <glyph glyph-name="p" unicode="p" horiz-adv-x="330" 
d="M330 339q1 -38 -4 -61t-15 -37t-22.5 -20.5t-26.5 -11.5q-16 -5 -40 -9.5l-47 -8.5q-27 -4 -57 -9q2 -34 4 -64q2 -26 3 -51t1 -36q0 -12 -14 -18.5t-32 -9.5t-34.5 -3.5t-21.5 -0.5q-6 0 -11 4.5t-8.5 11.5t-4.5 16t3 18q2 9 8 12.5t12 5.5q7 2 15 1q-9 35 -15 70
q-5 30 -9.5 65.5t-4.5 67.5q-2 62 6 102.5t36 69.5q13 14 25 23.5t25 16.5t28 10.5t34 5.5q19 1 46 -9.5t53 -31t45.5 -51t22.5 -68.5zM110 279q1 -3 12 -4.5t27 -1t34 3.5t33 10t24 17.5t7 26.5q-8 52 -29 74t-53 11q-14 -5 -27.5 -19.5t-22.5 -34t-11.5 -42t6.5 -41.5z
" />
    <glyph glyph-name="q" unicode="q" horiz-adv-x="510" 
d="M435 100l16 -27.5t13 -23.5q6 -12 12 -22q9 -16 5.5 -25t-14.5 -12.5t-27.5 -3t-32 5t-28.5 11t-17 14.5q-3 5 -6.5 9.5t-8.5 7.5q-33 -16 -64.5 -22.5t-52.5 -9.5q-29 -4 -66 3.5t-70 33t-54.5 71t-18.5 118.5q1 73 26 124.5t61 84t78 47.5t78 15q52 0 94.5 -11
t73 -36.5t47.5 -66.5t18 -101q3 -63 -15 -108t-47 -76zM125 242q-5 -55 4 -86t27 -44.5t43.5 -12.5t54.5 11q5 2 10.5 4.5t10.5 2.5q-8 21 1 34.5t23 24.5q11 11 27 12t39 -15q20 20 32.5 47.5t9.5 66.5q-3 40 -15.5 67.5t-32 43t-44.5 21.5t-51 3q-35 -11 -64 -35
q-25 -20 -47.5 -55t-27.5 -90z" />
    <glyph glyph-name="r" unicode="r" horiz-adv-x="474" 
d="M446 125q1 -13 -1.5 -27.5t-9.5 -26t-20 -16.5t-33 1l-53.5 21l-66 25.5l-62 22.5t-40.5 13q-13 4 -21 5t-13 1q-6 0 -9 -2q0 -33 -1 -59q-1 -23 -2.5 -43t-3.5 -24q-8 -8 -22 -12t-37 -2q-11 1 -17 10.5t-8.5 22t-2.5 26t1 24.5l16 162l6 61t6 54.5l5 41t4 20.5
q4 7 22.5 22.5t45.5 29.5t59 22.5t61 2.5q28 -6 51 -21t38 -36.5t20.5 -49t-1.5 -59.5q-8 -32 -24.5 -53t-33.5 -33q-20 -15 -43 -22l78 -28q15 -5 29 -10.5l25 -9.5t17.5 -7l6.5 -3q0 -1 5.5 -4t11.5 -8t11.5 -13t5.5 -19zM177 264q6 0 20 5.5t29.5 14.5t29.5 19t20 19
q15 17 6 42.5t-36 42.5q-13 9 -30 5.5t-32 -11.5t-26.5 -17.5t-14.5 -13.5q-3 -3 -4.5 -17.5t-3.5 -31.5q-2 -19 -2 -43q9 -3 17 -6q7 -2 14.5 -4.5t12.5 -3.5z" />
    <glyph glyph-name="s" unicode="s" horiz-adv-x="366" 
d="M199 504q32 -2 54.5 -18t34 -37.5t11 -43.5t-13.5 -35q-12 -12 -23.5 -13t-21 3t-16.5 11t-11 12q-3 5 -11.5 12.5t-20 11.5t-23.5 1.5t-21 -18.5q-10 -14 -2 -29t25 -29.5t39 -28t41 -23.5q18 -12 35.5 -22.5t32.5 -22.5t27.5 -27.5t21.5 -37.5t9 -48.5t-11.5 -51.5
t-36.5 -43.5t-66 -24.5q-42 -5 -78 -1t-67 13t-56 20.5t-44 22.5q-19 10 -25.5 23t-5 26t8.5 25.5t15 21.5q19 18 45 8.5t54 -32.5q13 -11 31 -18.5t36.5 -10.5t36.5 -2t31 7q24 13 16 35.5t-44 60.5q-18 21 -41.5 33t-47.5 26.5t-45 35.5t-33 60q-12 40 3.5 68.5t43 46
t59.5 25.5t54 8z" />
    <glyph glyph-name="t" unicode="t" horiz-adv-x="411" 
d="M406 487q20 -14 24 -37.5t-11 -41.5q-8 -8 -14.5 -10.5t-13.5 -3t-16 0t-21 -0.5q-18 0 -29 -2t-32 -5q-2 -16 -6.5 -48.5t-7.5 -70.5q-1 -24 1 -54.5t5.5 -59.5t7.5 -52.5t7 -35.5q2 -21 3 -36.5t-17 -20.5q-9 -2 -26 -5.5t-34.5 -2.5t-32.5 8t-20 26q-6 18 -6.5 62
t2.5 95t7.5 99t6.5 75q-33 -8 -70 -13.5t-70 -5.5q-23 -1 -38.5 5.5t-24.5 18.5t-12 27t0 31q2 15 12 24.5t23 15t26.5 7t24.5 0.5q10 0 28.5 0.5t41.5 2t48.5 3.5t51.5 5q50 8 82 11t48 6q16 0 24.5 -2t27.5 -15z" />
    <glyph glyph-name="u" unicode="u" horiz-adv-x="491" 
d="M436 200q2 -18 6 -39t9.5 -41t11 -37t10.5 -27q10 -20 -4 -36.5t-57 -18.5q-23 -2 -36 4.5t-21 16.5q-9 11 -12 26q-38 -10 -78 -19q-35 -8 -77 -16t-84 -12q-43 -4 -61 11t-21.5 37.5t2 47.5t10.5 42q6 15 13 41t14 56t12.5 59.5l9.5 52.5q5 21 7.5 41t7.5 36t15 26.5
t31 12.5t30 -18.5t10.5 -51.5t-2 -66.5t-7.5 -62.5q-3 -26 -14 -51t-19 -46t-8.5 -38t16.5 -27q18 -9 47.5 -4t58.5 14q33 11 70 28q-6 59 -10 113q-2 23 -3 47t-1.5 46.5t-0.5 42.5t2 35q1 31 10.5 47t24 22.5t31.5 6t33 -3.5q14 -1 18.5 -10.5t3.5 -25t-4.5 -35
t-4.5 -38.5q0 -20 1.5 -51t3.5 -62z" />
    <glyph glyph-name="w" unicode="w" horiz-adv-x="779" 
d="M219 164l40.5 35l52.5 45l49 41.5t30 23.5q31 19 90 0q14 -5 32.5 -22t35.5 -35q19 -21 39 -47q9 5 21 24.5t24.5 45t23.5 53t17 49.5q6 21 14.5 42t17.5 37.5t19 27t21 10.5q19 0 32.5 -15.5t16.5 -35.5q2 -21 -8 -75.5t-45 -145.5l-33.5 -85t-31.5 -70.5t-35 -48.5
t-43 -19q-26 -3 -42 5t-26 22t-15.5 31.5l-10.5 34.5q-4 17 -16.5 35.5t-26.5 34.5q-16 18 -35 36q-12 -1 -25.5 -11.5t-26 -26t-24.5 -33.5t-21 -35t-15 -34t-15.5 -31t-27 -23t-49.5 -9q-33 0 -53.5 11.5t-32 27.5t-16.5 34t-8 31q-2 12 -14.5 46l-28 74.5l-31 78
l-22.5 55.5l-15 34t-11.5 30.5t-5.5 28.5t4 28q5 13 13.5 18.5t19 7t22 -0.5t22.5 -5q10 -1 18.5 -14t17.5 -34t18 -47t21 -53l25 -57.5l26 -59.5z" />
    <glyph glyph-name="x" unicode="x" horiz-adv-x="526" 
d="M443 188l51.5 -34t43 -30t29 -26t9.5 -24q0 -20 -7.5 -39t-30.5 -30q-13 -5 -28.5 -5.5t-31 3t-29 11t-20.5 19.5q-5 10 -24 29t-45 42.5l-57.5 49.5l-62.5 51q-27 -36 -45 -64t-30 -49l-20 -35.5t-15 -23.5q-13 -21 -44 -30.5t-73 10.5q-19 12 -22.5 27.5t2.5 32.5
t19.5 34t28.5 32q13 12 28.5 28.5l31 34.5l31.5 36.5l30 35.5q-52 38 -81.5 66t-31.5 59q-6 34 15.5 49.5t51.5 12.5q13 -1 25.5 -11.5t25 -25.5t25.5 -33t27 -33q8 11 16 23.5l16 25.5q13 19 23 35t20.5 28t22 19.5t26.5 9.5q15 1 28.5 -2.5t22 -12.5t10 -23.5t-5.5 -33.5
q-11 -26 -35.5 -61.5t-57.5 -78.5l68.5 -51.5t69.5 -47.5z" />
    <glyph glyph-name="y" unicode="y" horiz-adv-x="486" 
d="M252 298l24 30.5l34.5 45l36.5 49t29 43.5q10 19 29 27.5t38 7t34.5 -13t19.5 -31.5t-6 -41t-27.5 -42t-38.5 -42.5t-39 -42.5q-17 -20 -36.5 -49.5t-37.5 -60.5t-33 -61t-24 -51q-15 -41 -34 -55.5t-59 -12.5q-20 1 -34.5 10.5t-21.5 22.5t-5.5 28t13.5 29l22 32l22 34
l23 36l-51 44l-55.5 45.5t-68.5 51.5q-38 27 -56.5 50t-22.5 41.5t3.5 32t21.5 21.5q31 16 59.5 -0.5t71.5 -59.5q22 -22 51 -42.5l55 -37.5z" />
    <glyph glyph-name="guillemotright" unicode="&#xbb;" horiz-adv-x="612" 
d="M301 286l-83 47l-66 37t-49 28l-34 18t-29.5 20t-19.5 24.5t-2 30.5q5 16 30.5 9t59 -24.5t68.5 -38.5t59 -33q25 -10 49 -24t43.5 -30.5t31.5 -35t14 -39.5q0 -15 -13 -33.5t-34.5 -38t-49 -39.5l-55 -38.5l-52.5 -35l-42 -27.5q-53 -38 -86 -54.5t-38 2.5q-2 9 9 23.5
t27.5 30.5t35 31t30.5 26l45 37l66 55zM517 286l-83 47l-65.5 37l-49.5 28l-33 18t-30 20t-19.5 24.5t-1.5 30.5q5 16 30.5 9t59 -24.5t69 -38.5t59.5 -33q24 -10 48 -24t43 -30.5t31 -35t13 -39.5q1 -23 -27 -52t-68 -59t-82 -57l-68 -44q-53 -38 -85.5 -54.5t-37.5 2.5
q-2 9 8.5 23.5t27 30.5t35 31l31.5 26l18 15l27 22l32 26.5l34 28.5z" />
    <glyph glyph-name="questiondown" unicode="&#xbf;" horiz-adv-x="382" 
d="M283 541q-2 11 -10.5 14.5t-20.5 2.5t-26 -5.5l-27 -8.5q-24 -13 -44 -22l-22 -10q5 -12 5 -22q0 -9 -4.5 -17t-17.5 -13q-12 -4 -30 0t-32.5 14t-20.5 25t6 33q22 38 59 55t86 28q25 5 54.5 9t55 1.5t43 -15t18.5 -41.5q0 -30 -3.5 -49t-10 -32.5t-17 -22.5t-23.5 -19
l-34 -28t-38 -34.5t-30 -32.5t-9 -21q3 -7 8.5 -15t10 -15.5t6 -14.5t-2.5 -12l-11.5 -14t-15.5 -12.5t-19.5 -3t-23.5 13.5q-12 13 -22 25t-14.5 23t-3 23.5t13.5 27.5q8 10 23.5 26.5l34 36l38 39.5l35.5 37.5t26 29.5t10 16zM239 11q21 16 27.5 37.5t-10.5 43.5
q-15 23 -30.5 29t-41.5 -5q-12 -5 -23 -15t-17 -22.5t-5 -25.5t12 -24q23 -23 44 -29t44 11z" />
    <glyph glyph-name="cedilla" unicode="&#xb8;" horiz-adv-x="412" 
d="M280 -26q-11 -36 -35.5 -65t-51 -47t-50 -24t-31.5 5q-9 10 -5.5 21.5t14 25t23.5 28.5t24 32q12 17 14.5 35.5t1.5 36.5t-3 34.5t1 29.5q4 15 13.5 24t22 12t26 0t25.5 -12q23 -18 23.5 -54.5t-12.5 -81.5z" />
    <glyph glyph-name="Agrave" unicode="&#xc0;" 
d="M356 1l-10.5 58.5t-8.5 57.5q-8 6 -31 16.5t-54 13.5q-26 0 -50.5 -4t-38.5 -8q-11 -29 -19.5 -53.5t-14.5 -43.5q-7 -22 -12 -40l-111 3q11 59 30 112t43 99.5t51 86t53 71.5q62 75 132 131q32 -2 50 -9t27 -15q10 -10 12 -21q1 -35 5.5 -73t10 -77t12.5 -77t14 -72
q17 -80 37 -159zM210 236q9 3 22 6t28 3t31.5 -3.5t31.5 -13.5q-3 32 -5 60.5t-4 49.5q-2 25 -3 44q-31 -31 -56 -69t-45 -77zM462 502q-28 9 -54 20q-23 8 -49 18.5l-47 18.5q-45 15 -70.5 33.5t-20.5 41.5q4 13 19 16t34.5 0t41 -9.5l38.5 -11.5q18 -4 36.5 -11.5
t35.5 -16.5t30.5 -18.5t22.5 -17.5q8 -8 6.5 -18.5t-6.5 -20.5q-6 -11 -17 -24z" />
    <glyph glyph-name="Aacute" unicode="&#xc1;" 
d="M483 -2q-20 79 -37 159q-7 34 -14 72t-12.5 77t-10 77t-5.5 73q-2 11 -12 21q-9 8 -27 15t-50 9q-70 -56 -132 -131q-26 -32 -53 -71.5t-51 -86t-43 -99.5t-30 -112l111 -3q5 18 12 40q6 19 14.5 43.5t19.5 53.5q14 4 38.5 8t50.5 4q31 -3 54 -13.5t31 -16.5
q3 -28 8.5 -57.5l10.5 -58.5zM210 236q20 39 45 77t56 69q1 -19 3 -44q2 -21 4 -49.5t5 -60.5q-15 10 -31.5 13.5t-31.5 3.5t-28 -3t-22 -6zM201 495q-10 16 -9 32q1 14 12 28.5t43 25.5l68 26.5t66 22t54.5 11t32.5 -4.5q14 -12 16 -26t-14 -30q-6 -4 -26 -11.5t-47 -16.5
t-58.5 -18.5l-59.5 -17.5l-49 -14t-29 -7z" />
    <glyph glyph-name="Acircumflex" unicode="&#xc2;" 
d="M356 1l-10.5 58.5t-8.5 57.5q-8 6 -31 16.5t-54 13.5q-26 0 -50.5 -4t-38.5 -8q-11 -29 -19.5 -53.5t-14.5 -43.5q-7 -22 -12 -40l-111 3q11 59 30 112t43 99.5t51 86t53 71.5q62 75 132 131q32 -2 50 -9t27 -15q10 -10 12 -21q1 -35 5.5 -73t10 -77t12.5 -77t14 -72
q17 -80 37 -159zM210 236q9 3 22 6t28 3t31.5 -3.5t31.5 -13.5q-3 32 -5 60.5t-4 49.5q-2 25 -3 44q-31 -31 -56 -69t-45 -77zM354 608q-6 -2 -17.5 -10.5t-23.5 -19.5t-24 -23.5t-19 -21.5q-15 -22 -27.5 -31t-35.5 -2q-10 4 -11.5 12.5t0.5 16.5q2 10 8 21l45 49
q19 20 41 40.5t39 31.5t29 11.5t20 -4t13.5 -12t8.5 -12.5q1 -5 7 -15.5t14 -23t18 -25t20 -20.5q9 -8 17 -18t10.5 -19.5t-2.5 -16.5t-22 -8q-17 0 -36 15.5t-35 34.5q-18 22 -37 50z" />
    <glyph glyph-name="Atilde" unicode="&#xc3;" 
d="M356 1l-10.5 58.5t-8.5 57.5q-8 6 -31 16.5t-54 13.5q-26 0 -50.5 -4t-38.5 -8q-11 -29 -19.5 -53.5t-14.5 -43.5q-7 -22 -12 -40l-111 3q11 59 30 112t43 99.5t51 86t53 71.5q62 75 132 131q32 -2 50 -9t27 -15q10 -10 12 -21q1 -35 5.5 -73t10 -77t12.5 -77t14 -72
q17 -80 37 -159zM210 236q9 3 22 6t28 3t31.5 -3.5t31.5 -13.5q-3 32 -5 60.5t-4 49.5q-2 25 -3 44q-31 -31 -56 -69t-45 -77zM440 552q-2 12 -7 21t-25 23q-10 7 -18.5 6t-19 -8t-23 -19l-29.5 -27t-34.5 -16t-33 5.5t-28.5 16.5t-20 18q-8 7 -9 18.5t2.5 22t12 18.5
t20.5 9t17.5 -3t9 -10l7.5 -12.5t12 -10.5q8 -5 12.5 -5t9 4.5t12 13t22.5 21.5q30 26 54.5 27t53.5 -11t42.5 -40t7.5 -58q-3 -15 -10.5 -19.5t-15.5 -3t-14.5 7.5t-7.5 11z" />
    <glyph glyph-name="Adieresis" unicode="&#xc4;" 
d="M356 1l-10.5 58.5t-8.5 57.5q-8 6 -31 16.5t-54 13.5q-26 0 -50.5 -4t-38.5 -8q-11 -29 -19.5 -53.5t-14.5 -43.5q-7 -22 -12 -40l-111 3q11 59 30 112t43 99.5t51 86t53 71.5q62 75 132 131q32 -2 50 -9t27 -15q10 -10 12 -21q1 -35 5.5 -73t10 -77t12.5 -77t14 -72
q17 -80 37 -159zM210 236q9 3 22 6t28 3t31.5 -3.5t31.5 -13.5q-3 32 -5 60.5t-4 49.5q-2 25 -3 44q-31 -31 -56 -69t-45 -77zM319 567q-3 -21 -16.5 -32t-30 -13t-32.5 4.5t-23 20.5q-7 15 -6 29.5t7.5 26t18 18.5t26.5 7q32 2 46 -16.5t10 -44.5zM471 570
q-3 -21 -16.5 -32t-30.5 -12.5t-32.5 5.5t-22.5 21t-6.5 28t7.5 25.5t18.5 18.5t26.5 7q31 3 45 -16t11 -45z" />
    <glyph glyph-name="Aring" unicode="&#xc5;" 
d="M356 1l-10.5 58.5t-8.5 57.5q-8 6 -31 16.5t-54 13.5q-26 0 -50.5 -4t-38.5 -8q-11 -29 -19.5 -53.5t-14.5 -43.5q-7 -22 -12 -40l-111 3q11 59 30 112t43 99.5t51 86t53 71.5q62 75 132 131q32 -2 50 -9t27 -15q10 -10 12 -21q1 -35 5.5 -73t10 -77t12.5 -77t14 -72
q17 -80 37 -159zM210 236q9 3 22 6t28 3t31.5 -3.5t31.5 -13.5q-3 32 -5 60.5t-4 49.5q-2 25 -3 44q-31 -31 -56 -69t-45 -77zM436 625q3 -23 -4 -43.5t-20 -36t-31 -25.5t-36 -12l-2 2q-25 -2 -42 8.5t-27 27t-13.5 36t-0.5 34.5t14.5 28t26.5 22.5t32.5 15.5t32.5 7
q30 2 48.5 -17t21.5 -47zM346 545q20 1 37 18.5t15 45.5q-3 29 -15.5 37.5t-22.5 6.5q-4 0 -14.5 -3.5t-21 -10t-19 -16t-9.5 -21.5q-2 -26 13.5 -42t36.5 -15z" />
    <glyph glyph-name="Egrave" unicode="&#xc8;" horiz-adv-x="438" 
d="M379 480q3 -12 3 -23q0 -10 -3.5 -22t-13.5 -22q-12 -9 -41 -8t-63 2.5t-65.5 0t-47.5 -15.5q-16 -16 -18 -34t2 -34q4 -18 16 -37q29 4 55 3q22 -1 43.5 -6t30.5 -18q8 -13 8 -24.5t-5 -20.5q-5 -11 -14 -20l-135 -17q-7 -8 -8 -19q-2 -9 2.5 -20.5t18.5 -24.5
q17 -16 39.5 -21t48 -2.5t52 11t52.5 19.5q60 26 124 71q11 -5 16 -16.5t6 -22.5q1 -13 -2 -29q-35 -48 -88 -80.5t-112.5 -43t-118.5 3.5t-105 59q-23 22 -34 49.5t-14.5 57t-0.5 60t9 58.5q15 66 50 135q-19 7 -26 17q-6 8 -1.5 20t34.5 28q15 7 36.5 10.5t46 4t50.5 -1.5
t51 -5q58 -8 122 -22zM332 502q-28 9 -54 20q-23 8 -49 18.5l-47 18.5q-45 15 -70.5 33.5t-20.5 41.5q4 13 19 16t34.5 0t41 -9.5l38.5 -11.5q18 -4 36.5 -11.5t35.5 -16.5t30.5 -18.5t22.5 -17.5q8 -8 6.5 -18.5t-6.5 -20.5q-6 -11 -17 -24z" />
    <glyph glyph-name="Eacute" unicode="&#xc9;" horiz-adv-x="441" 
d="M379 480q-64 14 -122 22q-25 3 -51 5t-50.5 1.5t-46 -4t-36.5 -10.5q-30 -16 -34.5 -28t1.5 -20q7 -10 26 -17q-35 -69 -50 -135q-6 -28 -9 -58.5t0.5 -60t14.5 -57t34 -49.5q46 -45 105 -59t118.5 -3.5t112.5 43t88 80.5q3 16 2 29q-1 11 -6 22.5t-16 16.5
q-64 -45 -124 -71q-26 -11 -52.5 -19.5t-52 -11t-48 2.5t-39.5 21q-14 13 -18.5 24.5t-2.5 20.5q1 11 8 19l135 17q9 9 14 20q5 9 5 20.5t-8 24.5q-9 13 -30.5 18t-43.5 6q-26 1 -55 -3q-12 19 -16 37q-4 16 -2 34t18 34q16 14 47.5 15.5t65.5 0t63 -2.5t41 8q10 10 13.5 22
t3.5 22q0 11 -3 23zM100 495q-10 16 -9 32q1 14 12 28.5t43 25.5l68 26.5t66 22t54.5 11t32.5 -4.5q14 -12 16 -26t-14 -30q-6 -4 -26 -11.5t-47 -16.5t-58.5 -18.5l-59.5 -17.5l-49 -14t-29 -7z" />
    <glyph glyph-name="Ecircumflex" unicode="&#xca;" horiz-adv-x="441" 
d="M379 480q3 -12 3 -23q0 -10 -3.5 -22t-13.5 -22q-12 -9 -41 -8t-63 2.5t-65.5 0t-47.5 -15.5q-16 -16 -18 -34t2 -34q4 -18 16 -37q29 4 55 3q22 -1 43.5 -6t30.5 -18q8 -13 8 -24.5t-5 -20.5q-5 -11 -14 -20l-135 -17q-7 -8 -8 -19q-2 -9 2.5 -20.5t18.5 -24.5
q17 -16 39.5 -21t48 -2.5t52 11t52.5 19.5q60 26 124 71q11 -5 16 -16.5t6 -22.5q1 -13 -2 -29q-35 -48 -88 -80.5t-112.5 -43t-118.5 3.5t-105 59q-23 22 -34 49.5t-14.5 57t-0.5 60t9 58.5q15 66 50 135q-19 7 -26 17q-6 8 -1.5 20t34.5 28q15 7 36.5 10.5t46 4t50.5 -1.5
t51 -5q58 -8 122 -22zM228 608q-6 -2 -17.5 -10.5t-23.5 -19.5t-24 -23.5t-19 -21.5q-15 -22 -27.5 -31t-35.5 -2q-10 4 -11.5 12.5t0.5 16.5q2 10 8 21l45 49q19 20 41 40.5t39 31.5t29 11.5t20 -4t13.5 -12t8.5 -12.5q1 -5 7 -15.5t14 -23t18 -25t20 -20.5q9 -8 17 -18
t10.5 -19.5t-2.5 -16.5t-22 -8q-17 0 -36 15.5t-35 34.5q-18 22 -37 50z" />
    <glyph glyph-name="Edieresis" unicode="&#xcb;" horiz-adv-x="444" 
d="M379 480q3 -12 3 -23q0 -10 -3.5 -22t-13.5 -22q-12 -9 -41 -8t-63 2.5t-65.5 0t-47.5 -15.5q-16 -16 -18 -34t2 -34q4 -18 16 -37q29 4 55 3q22 -1 43.5 -6t30.5 -18q8 -13 8 -24.5t-5 -20.5q-5 -11 -14 -20l-135 -17q-7 -8 -8 -19q-2 -9 2.5 -20.5t18.5 -24.5
q17 -16 39.5 -21t48 -2.5t52 11t52.5 19.5q60 26 124 71q11 -5 16 -16.5t6 -22.5q1 -13 -2 -29q-35 -48 -88 -80.5t-112.5 -43t-118.5 3.5t-105 59q-23 22 -34 49.5t-14.5 57t-0.5 60t9 58.5q15 66 50 135q-19 7 -26 17q-6 8 -1.5 20t34.5 28q15 7 36.5 10.5t46 4t50.5 -1.5
t51 -5q58 -8 122 -22zM194 567q-3 -21 -16.5 -32t-30 -13t-32.5 4.5t-23 20.5q-7 15 -6 29.5t7.5 26t18 18.5t26.5 7q32 2 46 -16.5t10 -44.5zM346 570q-3 -21 -16.5 -32t-30.5 -12.5t-32.5 5.5t-22.5 21t-6.5 28t7.5 25.5t18.5 18.5t26.5 7q31 3 45 -16t11 -45z" />
    <glyph glyph-name="Igrave" unicode="&#xcc;" horiz-adv-x="421" 
d="M362 132q23 1 34 -13t15 -32t2.5 -36t-2.5 -24q-3 -14 -24 -17t-72 -5q-23 -1 -61 -3l-78 -4t-75.5 -4.5t-51.5 -5.5q-17 -1 -26.5 7t-12.5 20.5t-2 28t5 28.5t15.5 21.5t28 13.5t36 8.5t39.5 6.5q8 0 20 0.5t24 2.5v103v143q-17 0 -37 -1t-39 -6q-19 -3 -28 4t-11 18.5
t0 26t4 27.5q1 10 16.5 18t39.5 14t53.5 11t58.5 8t55 5t43 3q26 1 42.5 -7.5t25.5 -23t12 -32t3 -33.5t-8 -23t-18.5 -9t-20 -1t-12.5 1q-1 0 -10 1t-22 1.5t-28 1.5t-28 1q0 -22 -1.5 -52.5t-1.5 -60.5q0 -18 0.5 -38l1 -38.5t1 -34t0.5 -24.5q20 2 37.5 2t30.5 1
q15 0 27 1zM331 502q-28 9 -54 20q-23 8 -49 18.5l-47 18.5q-45 15 -70.5 33.5t-20.5 41.5q4 13 19 16t34.5 0t41 -9.5l38.5 -11.5q18 -4 36.5 -11.5t35.5 -16.5t30.5 -18.5t22.5 -17.5q8 -8 6.5 -18.5t-6.5 -20.5q-6 -11 -17 -24z" />
    <glyph glyph-name="Iacute" unicode="&#xcd;" horiz-adv-x="421" 
d="M362 132q-12 -1 -27 -1q-13 -1 -30.5 -1t-37.5 -2q0 9 -0.5 24.5t-1 34l-1 38.5t-0.5 38q0 30 1.5 60.5t1.5 52.5q13 0 28 -1t28 -1.5t22 -1.5t10 -1q3 0 12.5 -1t20 1t18.5 9t8 23t-3 33.5t-12 32t-25.5 23t-42.5 7.5q-17 -1 -43 -3t-55 -5t-58.5 -8t-53.5 -11
t-39.5 -14t-16.5 -18q-2 -13 -4 -27.5t0 -26t11 -18.5t28 -4q19 5 39 6t37 1v-143v-103q-12 -2 -24 -2.5t-20 -0.5q-20 -3 -39.5 -6.5t-36 -8.5t-28 -13.5t-15.5 -21.5t-5 -28.5t2 -28t12.5 -20.5t26.5 -7q16 3 51.5 5.5t75.5 4.5l78 4t61 3q51 2 72 5t24 17q1 6 2.5 24
t-2.5 36t-15 32t-34 13zM108 495q-10 16 -9 32q1 14 12 28.5t43 25.5l68 26.5t66 22t54.5 11t32.5 -4.5q14 -12 16 -26t-14 -30q-6 -4 -26 -11.5t-47 -16.5t-58.5 -18.5l-59.5 -17.5l-49 -14t-29 -7z" />
    <glyph glyph-name="Icircumflex" unicode="&#xce;" horiz-adv-x="421" 
d="M362 132q23 1 34 -13t15 -32t2.5 -36t-2.5 -24q-3 -14 -24 -17t-72 -5q-23 -1 -61 -3l-78 -4t-75.5 -4.5t-51.5 -5.5q-17 -1 -26.5 7t-12.5 20.5t-2 28t5 28.5t15.5 21.5t28 13.5t36 8.5t39.5 6.5q8 0 20 0.5t24 2.5v103v143q-17 0 -37 -1t-39 -6q-19 -3 -28 4t-11 18.5
t0 26t4 27.5q1 10 16.5 18t39.5 14t53.5 11t58.5 8t55 5t43 3q26 1 42.5 -7.5t25.5 -23t12 -32t3 -33.5t-8 -23t-18.5 -9t-20 -1t-12.5 1q-1 0 -10 1t-22 1.5t-28 1.5t-28 1q0 -22 -1.5 -52.5t-1.5 -60.5q0 -18 0.5 -38l1 -38.5t1 -34t0.5 -24.5q20 2 37.5 2t30.5 1
q15 0 27 1zM254 608q-6 -2 -17.5 -10.5t-23.5 -19.5t-24 -23.5t-19 -21.5q-15 -22 -27.5 -31t-35.5 -2q-10 4 -11.5 12.5t0.5 16.5q2 10 8 21l45 49q19 20 41 40.5t39 31.5t29 11.5t20 -4t13.5 -12t8.5 -12.5q1 -5 7 -15.5t14 -23t18 -25t20 -20.5q9 -8 17 -18t10.5 -19.5
t-2.5 -16.5t-22 -8q-17 0 -36 15.5t-35 34.5q-18 22 -37 50z" />
    <glyph glyph-name="Idieresis" unicode="&#xcf;" horiz-adv-x="421" 
d="M362 132q23 1 34 -13t15 -32t2.5 -36t-2.5 -24q-3 -14 -24 -17t-72 -5q-23 -1 -61 -3l-78 -4t-75.5 -4.5t-51.5 -5.5q-17 -1 -26.5 7t-12.5 20.5t-2 28t5 28.5t15.5 21.5t28 13.5t36 8.5t39.5 6.5q8 0 20 0.5t24 2.5v103v143q-17 0 -37 -1t-39 -6q-19 -3 -28 4t-11 18.5
t0 26t4 27.5q1 10 16.5 18t39.5 14t53.5 11t58.5 8t55 5t43 3q26 1 42.5 -7.5t25.5 -23t12 -32t3 -33.5t-8 -23t-18.5 -9t-20 -1t-12.5 1q-1 0 -10 1t-22 1.5t-28 1.5t-28 1q0 -22 -1.5 -52.5t-1.5 -60.5q0 -18 0.5 -38l1 -38.5t1 -34t0.5 -24.5q20 2 37.5 2t30.5 1
q15 0 27 1zM220 567q-3 -21 -16.5 -32t-30 -13t-32.5 4.5t-23 20.5q-7 15 -6 29.5t7.5 26t18 18.5t26.5 7q32 2 46 -16.5t10 -44.5zM372 570q-3 -21 -16.5 -32t-30.5 -12.5t-32.5 5.5t-22.5 21t-6.5 28t7.5 25.5t18.5 18.5t26.5 7q31 3 45 -16t11 -45z" />
    <glyph glyph-name="Ntilde" unicode="&#xd1;" horiz-adv-x="529" 
d="M63 41q0 38 -2 76q-2 32 -4.5 68t-7.5 65q-4 18 -11.5 43l-15 52t-13 53.5t-5.5 48.5t7 37t24 19q26 5 55 -16t57.5 -51.5t54.5 -62.5t46 -49q19 -17 43.5 -41.5t47 -44t40 -27t23.5 10.5q4 12 5.5 35t1 49.5t-0.5 55t1.5 52t6 40.5t14.5 20l28.5 8t27 0.5t21 -17
t10.5 -43.5q2 -20 3 -59.5t-0.5 -87t-5 -97t-10.5 -89.5t-18.5 -65t-27.5 -22q-25 4 -41.5 13.5t-28.5 22t-22 28t-23 30.5q-9 11 -27.5 30.5l-41.5 42l-47.5 45l-45 40t-34 26.5t-14.5 5q-3 -5 0.5 -18.5t9 -31.5l12 -39.5t10.5 -42.5q3 -21 4.5 -46.5t-2.5 -47.5
t-13.5 -37.5t-27.5 -16.5q-17 -3 -29 2t-20 13q-9 9 -14 21zM357 552q-2 12 -7 21t-25 23q-10 7 -18.5 6t-19 -8t-23 -19l-29.5 -27t-34.5 -16t-33 5.5t-28.5 16.5t-20 18q-8 7 -9 18.5t2.5 22t12 18.5t20.5 9t17.5 -3t9 -10l7.5 -12.5t12 -10.5q8 -5 12.5 -5t9 4.5t12 13
t22.5 21.5q30 26 54.5 27t53.5 -11t42.5 -40t7.5 -58q-3 -15 -10.5 -19.5t-15.5 -3t-14.5 7.5t-7.5 11z" />
    <glyph glyph-name="Ograve" unicode="&#xd2;" horiz-adv-x="470" 
d="M228 498q67 3 111 -16.5t70 -55.5t37 -86t11 -108q0 -38 -10 -77.5t-34 -72t-64 -54.5t-101 -26q-45 -3 -87 14t-75 48t-53 74.5t-21 93.5q-2 50 13 97t43 83.5t68.5 60t91.5 25.5zM361 252q1 40 -8.5 67.5t-25.5 45t-35.5 26t-37.5 9.5q-19 1 -43.5 -4.5t-46.5 -21.5
t-37.5 -44.5t-16.5 -73.5q0 -44 12.5 -74t32.5 -48.5t45.5 -27t51.5 -8.5q56 0 81.5 37.5t27.5 116.5zM358 502q-28 9 -54 20q-23 8 -49 18.5l-47 18.5q-45 15 -70.5 33.5t-20.5 41.5q4 13 19 16t34.5 0t41 -9.5l38.5 -11.5q18 -4 36.5 -11.5t35.5 -16.5t30.5 -18.5
t22.5 -17.5q8 -8 6.5 -18.5t-6.5 -20.5q-6 -11 -17 -24z" />
    <glyph glyph-name="Oacute" unicode="&#xd3;" horiz-adv-x="470" 
d="M228 498q-51 -2 -91.5 -25.5t-68.5 -60t-43 -83.5t-13 -97q1 -50 21 -93.5t53 -74.5t75 -48t87 -14q61 4 101 26t64 54.5t34 72t10 77.5q0 58 -11 108t-37 86t-70 55.5t-111 16.5zM361 252q-2 -79 -27.5 -116.5t-81.5 -37.5q-26 0 -51.5 8.5t-45.5 27t-32.5 48.5
t-12.5 74q1 45 16.5 73.5t37.5 44.5t46.5 21.5t43.5 4.5q18 -1 37.5 -9.5t35.5 -26t25.5 -45t8.5 -67.5zM107 495q-10 16 -9 32q1 14 12 28.5t43 25.5l68 26.5t66 22t54.5 11t32.5 -4.5q14 -12 16 -26t-14 -30q-6 -4 -26 -11.5t-47 -16.5t-58.5 -18.5l-59.5 -17.5l-49 -14
t-29 -7z" />
    <glyph glyph-name="Ocircumflex" unicode="&#xd4;" horiz-adv-x="470" 
d="M228 498q67 3 111 -16.5t70 -55.5t37 -86t11 -108q0 -38 -10 -77.5t-34 -72t-64 -54.5t-101 -26q-45 -3 -87 14t-75 48t-53 74.5t-21 93.5q-2 50 13 97t43 83.5t68.5 60t91.5 25.5zM361 252q1 40 -8.5 67.5t-25.5 45t-35.5 26t-37.5 9.5q-19 1 -43.5 -4.5t-46.5 -21.5
t-37.5 -44.5t-16.5 -73.5q0 -44 12.5 -74t32.5 -48.5t45.5 -27t51.5 -8.5q56 0 81.5 37.5t27.5 116.5zM249 608q-6 -2 -17.5 -10.5t-23.5 -19.5t-24 -23.5t-19 -21.5q-15 -22 -27.5 -31t-35.5 -2q-10 4 -11.5 12.5t0.5 16.5q2 10 8 21l45 49q19 20 41 40.5t39 31.5t29 11.5
t20 -4t13.5 -12t8.5 -12.5q1 -5 7 -15.5t14 -23t18 -25t20 -20.5q9 -8 17 -18t10.5 -19.5t-2.5 -16.5t-22 -8q-17 0 -36 15.5t-35 34.5q-18 22 -37 50z" />
    <glyph glyph-name="Otilde" unicode="&#xd5;" horiz-adv-x="470" 
d="M228 498q67 3 111 -16.5t70 -55.5t37 -86t11 -108q0 -38 -10 -77.5t-34 -72t-64 -54.5t-101 -26q-45 -3 -87 14t-75 48t-53 74.5t-21 93.5q-2 50 13 97t43 83.5t68.5 60t91.5 25.5zM361 252q1 40 -8.5 67.5t-25.5 45t-35.5 26t-37.5 9.5q-19 1 -43.5 -4.5t-46.5 -21.5
t-37.5 -44.5t-16.5 -73.5q0 -44 12.5 -74t32.5 -48.5t45.5 -27t51.5 -8.5q56 0 81.5 37.5t27.5 116.5zM337 552q-2 12 -7 21t-25 23q-10 7 -18.5 6t-19 -8t-23 -19l-29.5 -27t-34.5 -16t-33 5.5t-28.5 16.5t-20 18q-8 7 -9 18.5t2.5 22t12 18.5t20.5 9t17.5 -3t9 -10
l7.5 -12.5t12 -10.5q8 -5 12.5 -5t9 4.5t12 13t22.5 21.5q30 26 54.5 27t53.5 -11t42.5 -40t7.5 -58q-3 -15 -10.5 -19.5t-15.5 -3t-14.5 7.5t-7.5 11z" />
    <glyph glyph-name="Odieresis" unicode="&#xd6;" horiz-adv-x="470" 
d="M228 498q67 3 111 -16.5t70 -55.5t37 -86t11 -108q0 -38 -10 -77.5t-34 -72t-64 -54.5t-101 -26q-45 -3 -87 14t-75 48t-53 74.5t-21 93.5q-2 50 13 97t43 83.5t68.5 60t91.5 25.5zM361 252q1 40 -8.5 67.5t-25.5 45t-35.5 26t-37.5 9.5q-19 1 -43.5 -4.5t-46.5 -21.5
t-37.5 -44.5t-16.5 -73.5q0 -44 12.5 -74t32.5 -48.5t45.5 -27t51.5 -8.5q56 0 81.5 37.5t27.5 116.5zM224 567q-3 -21 -16.5 -32t-30 -13t-32.5 4.5t-23 20.5q-7 15 -6 29.5t7.5 26t18 18.5t26.5 7q32 2 46 -16.5t10 -44.5zM376 570q-3 -21 -16.5 -32t-30.5 -12.5
t-32.5 5.5t-22.5 21t-6.5 28t7.5 25.5t18.5 18.5t26.5 7q31 3 45 -16t11 -45z" />
    <glyph glyph-name="Ugrave" unicode="&#xd9;" horiz-adv-x="491" 
d="M436 200q2 -18 6 -39t9.5 -41t11 -37t10.5 -27q10 -20 -4 -36.5t-57 -18.5q-23 -2 -36 4.5t-21 16.5q-9 11 -12 26q-38 -10 -78 -19q-35 -8 -77 -16t-84 -12q-43 -4 -61 11t-21.5 37.5t2 47.5t10.5 42q6 15 13 41t14 56t12.5 59.5l9.5 52.5q5 21 7.5 41t7.5 36t15 26.5
t31 12.5t30 -18.5t10.5 -51.5t-2 -66.5t-7.5 -62.5q-3 -26 -14 -51t-19 -46t-8.5 -38t16.5 -27q18 -9 47.5 -4t58.5 14q33 11 70 28q-6 59 -10 113q-2 23 -3 47t-1.5 46.5t-0.5 42.5t2 35q1 31 10.5 47t24 22.5t31.5 6t33 -3.5q14 -1 18.5 -10.5t3.5 -25t-4.5 -35
t-4.5 -38.5q0 -20 1.5 -51t3.5 -62zM341 502q-28 9 -54 20q-23 8 -49 18.5l-47 18.5q-45 15 -70.5 33.5t-20.5 41.5q4 13 19 16t34.5 0t41 -9.5l38.5 -11.5q18 -4 36.5 -11.5t35.5 -16.5t30.5 -18.5t22.5 -17.5q8 -8 6.5 -18.5t-6.5 -20.5q-6 -11 -17 -24z" />
    <glyph glyph-name="Uacute" unicode="&#xda;" horiz-adv-x="491" 
d="M436 200l-6 75q-2 31 -3.5 62t-1.5 51q1 19 4.5 38.5t4.5 35t-3.5 25t-18.5 10.5q-16 3 -33 3.5t-31.5 -6t-24 -22.5t-10.5 -47q-2 -15 -2 -35t0.5 -42.5t1.5 -46.5t3 -47q4 -54 10 -113q-37 -17 -70 -28q-29 -9 -58.5 -14t-47.5 4q-17 10 -16.5 27t8.5 38t19 46t14 51
q4 27 7.5 62.5t2 66.5t-10.5 51.5t-30 18.5t-31 -12.5t-15 -26.5t-7.5 -36t-7.5 -41l-9.5 -52.5t-12.5 -59.5t-14 -56t-13 -41q-5 -17 -10.5 -42t-2 -47.5t21.5 -37.5t61 -11q42 4 84 12t77 16q40 9 78 19q3 -15 12 -26q8 -10 21 -16.5t36 -4.5q43 2 57 18.5t4 36.5
q-5 10 -10.5 27t-11 37t-9.5 41t-6 39zM152 495q-10 16 -9 32q1 14 12 28.5t43 25.5l68 26.5t66 22t54.5 11t32.5 -4.5q14 -12 16 -26t-14 -30q-6 -4 -26 -11.5t-47 -16.5t-58.5 -18.5l-59.5 -17.5l-49 -14t-29 -7z" />
    <glyph glyph-name="Ucircumflex" unicode="&#xdb;" horiz-adv-x="491" 
d="M436 200q2 -18 6 -39t9.5 -41t11 -37t10.5 -27q10 -20 -4 -36.5t-57 -18.5q-23 -2 -36 4.5t-21 16.5q-9 11 -12 26q-38 -10 -78 -19q-35 -8 -77 -16t-84 -12q-43 -4 -61 11t-21.5 37.5t2 47.5t10.5 42q6 15 13 41t14 56t12.5 59.5l9.5 52.5q5 21 7.5 41t7.5 36t15 26.5
t31 12.5t30 -18.5t10.5 -51.5t-2 -66.5t-7.5 -62.5q-3 -26 -14 -51t-19 -46t-8.5 -38t16.5 -27q18 -9 47.5 -4t58.5 14q33 11 70 28q-6 59 -10 113q-2 23 -3 47t-1.5 46.5t-0.5 42.5t2 35q1 31 10.5 47t24 22.5t31.5 6t33 -3.5q14 -1 18.5 -10.5t3.5 -25t-4.5 -35
t-4.5 -38.5q0 -20 1.5 -51t3.5 -62zM278 608q-6 -2 -17.5 -10.5t-23.5 -19.5t-24 -23.5t-19 -21.5q-15 -22 -27.5 -31t-35.5 -2q-10 4 -11.5 12.5t0.5 16.5q2 10 8 21l45 49q19 20 41 40.5t39 31.5t29 11.5t20 -4t13.5 -12t8.5 -12.5q1 -5 7 -15.5t14 -23t18 -25t20 -20.5
q9 -8 17 -18t10.5 -19.5t-2.5 -16.5t-22 -8q-17 0 -36 15.5t-35 34.5q-18 22 -37 50z" />
    <glyph glyph-name="Udieresis" unicode="&#xdc;" horiz-adv-x="491" 
d="M436 200q2 -18 6 -39t9.5 -41t11 -37t10.5 -27q10 -20 -4 -36.5t-57 -18.5q-23 -2 -36 4.5t-21 16.5q-9 11 -12 26q-38 -10 -78 -19q-35 -8 -77 -16t-84 -12q-43 -4 -61 11t-21.5 37.5t2 47.5t10.5 42q6 15 13 41t14 56t12.5 59.5l9.5 52.5q5 21 7.5 41t7.5 36t15 26.5
t31 12.5t30 -18.5t10.5 -51.5t-2 -66.5t-7.5 -62.5q-3 -26 -14 -51t-19 -46t-8.5 -38t16.5 -27q18 -9 47.5 -4t58.5 14q33 11 70 28q-6 59 -10 113q-2 23 -3 47t-1.5 46.5t-0.5 42.5t2 35q1 31 10.5 47t24 22.5t31.5 6t33 -3.5q14 -1 18.5 -10.5t3.5 -25t-4.5 -35
t-4.5 -38.5q0 -20 1.5 -51t3.5 -62zM248 567q-3 -21 -16.5 -32t-30 -13t-32.5 4.5t-23 20.5q-7 15 -6 29.5t7.5 26t18 18.5t26.5 7q32 2 46 -16.5t10 -44.5zM400 570q-3 -21 -16.5 -32t-30.5 -12.5t-32.5 5.5t-22.5 21t-6.5 28t7.5 25.5t18.5 18.5t26.5 7q31 3 45 -16
t11 -45z" />
    <glyph glyph-name="igrave" unicode="&#xec;" horiz-adv-x="211" 
d="M94 0q-16 -2 -26.5 3t-16.5 14t-8 21.5t-2 25.5q1 8 2 35t3 63.5t3.5 78t3.5 78t3 64.5t2 38q2 33 11 50.5t32 19.5q26 2 37.5 -12.5t16.5 -46.5q1 -11 1.5 -39t1 -64.5t1 -77t0.5 -76.5v-63.5v-37.5q0 -27 -13.5 -47.5t-51.5 -26.5zM220 502q-28 9 -54 20
q-23 8 -49 18.5l-47 18.5q-45 15 -70.5 33.5t-20.5 41.5q4 13 19 16t34.5 0t41 -9.5l38.5 -11.5q18 -4 36.5 -11.5t35.5 -16.5t30.5 -18.5t22.5 -17.5q8 -8 6.5 -18.5t-6.5 -20.5q-6 -11 -17 -24z" />
    <glyph glyph-name="iacute" unicode="&#xed;" horiz-adv-x="201" 
d="M92 0q38 6 51.5 26.5t13.5 47.5v37.5v63.5t-0.5 76.5t-1 77t-1 64.5t-1.5 39q-5 32 -16.5 46.5t-37.5 12.5q-23 -2 -32 -19.5t-11 -50.5q-1 -10 -2 -38t-3 -64.5t-3.5 -78t-3.5 -78t-3 -63.5t-2 -35q0 -13 2 -25.5t8 -21.5t16.5 -14t26.5 -3zM38 526q-10 16 -9 32
q1 14 12 28.5t43 25.5l68 26.5t66 22t54.5 11t32.5 -4.5q14 -12 16 -26t-14 -30q-6 -4 -26 -11.5t-47 -16.5t-58.5 -18.5l-59.5 -17.5l-49 -14t-29 -7z" />
    <glyph glyph-name="icircumflex" unicode="&#xee;" horiz-adv-x="211" 
d="M100 0q-16 -2 -26.5 3t-16.5 14t-8 21.5t-2 25.5q1 8 2 35t3 63.5t3.5 78t3.5 78t3 64.5t2 38q2 33 11 50.5t32 19.5q26 2 37.5 -12.5t16.5 -46.5q1 -11 1.5 -39t1 -64.5t1 -77t0.5 -76.5v-63.5v-37.5q0 -27 -13.5 -47.5t-51.5 -26.5zM134 608q-6 -2 -17.5 -10.5
t-23.5 -19.5t-24 -23.5t-19 -21.5q-15 -22 -27.5 -31t-35.5 -2q-10 4 -11.5 12.5t0.5 16.5q2 10 8 21l45 49q19 20 41 40.5t39 31.5t29 11.5t20 -4t13.5 -12t8.5 -12.5q1 -5 7 -15.5t14 -23t18 -25t20 -20.5q9 -8 17 -18t10.5 -19.5t-2.5 -16.5t-22 -8q-17 0 -36 15.5
t-35 34.5q-18 22 -37 50z" />
    <glyph glyph-name="idieresis" unicode="&#xef;" horiz-adv-x="209" 
d="M95 0q-16 -2 -26.5 3t-16.5 14t-8 21.5t-2 25.5q1 8 2 35t3 63.5t3.5 78t3.5 78t3 64.5t2 38q2 33 11 50.5t32 19.5q26 2 37.5 -12.5t16.5 -46.5q1 -11 1.5 -39t1 -64.5t1 -77t0.5 -76.5v-63.5v-37.5q0 -27 -13.5 -47.5t-51.5 -26.5zM93 567q-3 -21 -16.5 -32t-30 -13
t-32.5 4.5t-23 20.5q-7 15 -6 29.5t7.5 26t18 18.5t26.5 7q32 2 46 -16.5t10 -44.5zM245 570q-3 -21 -16.5 -32t-30.5 -12.5t-32.5 5.5t-22.5 21t-6.5 28t7.5 25.5t18.5 18.5t26.5 7q31 3 45 -16t11 -45z" />
    <glyph glyph-name="agrave" unicode="&#xe0;" 
d="M356 1l-10.5 58.5t-8.5 57.5q-8 6 -31 16.5t-54 13.5q-26 0 -50.5 -4t-38.5 -8q-11 -29 -19.5 -53.5t-14.5 -43.5q-7 -22 -12 -40l-111 3q11 59 30 112t43 99.5t51 86t53 71.5q62 75 132 131q32 -2 50 -9t27 -15q10 -10 12 -21q1 -35 5.5 -73t10 -77t12.5 -77t14 -72
q17 -80 37 -159zM210 236q9 3 22 6t28 3t31.5 -3.5t31.5 -13.5q-3 32 -5 60.5t-4 49.5q-2 25 -3 44q-31 -31 -56 -69t-45 -77zM462 502q-28 9 -54 20q-23 8 -49 18.5l-47 18.5q-45 15 -70.5 33.5t-20.5 41.5q4 13 19 16t34.5 0t41 -9.5l38.5 -11.5q18 -4 36.5 -11.5
t35.5 -16.5t30.5 -18.5t22.5 -17.5q8 -8 6.5 -18.5t-6.5 -20.5q-6 -11 -17 -24z" />
    <glyph glyph-name="aacute" unicode="&#xe1;" 
d="M483 -2q-20 79 -37 159q-7 34 -14 72t-12.5 77t-10 77t-5.5 73q-2 11 -12 21q-9 8 -27 15t-50 9q-70 -56 -132 -131q-26 -32 -53 -71.5t-51 -86t-43 -99.5t-30 -112l111 -3q5 18 12 40q6 19 14.5 43.5t19.5 53.5q14 4 38.5 8t50.5 4q31 -3 54 -13.5t31 -16.5
q3 -28 8.5 -57.5l10.5 -58.5zM210 236q20 39 45 77t56 69q1 -19 3 -44q2 -21 4 -49.5t5 -60.5q-15 10 -31.5 13.5t-31.5 3.5t-28 -3t-22 -6zM201 495q-10 16 -9 32q1 14 12 28.5t43 25.5l68 26.5t66 22t54.5 11t32.5 -4.5q14 -12 16 -26t-14 -30q-6 -4 -26 -11.5t-47 -16.5
t-58.5 -18.5l-59.5 -17.5l-49 -14t-29 -7z" />
    <glyph glyph-name="acircumflex" unicode="&#xe2;" 
d="M356 1l-10.5 58.5t-8.5 57.5q-8 6 -31 16.5t-54 13.5q-26 0 -50.5 -4t-38.5 -8q-11 -29 -19.5 -53.5t-14.5 -43.5q-7 -22 -12 -40l-111 3q11 59 30 112t43 99.5t51 86t53 71.5q62 75 132 131q32 -2 50 -9t27 -15q10 -10 12 -21q1 -35 5.5 -73t10 -77t12.5 -77t14 -72
q17 -80 37 -159zM210 236q9 3 22 6t28 3t31.5 -3.5t31.5 -13.5q-3 32 -5 60.5t-4 49.5q-2 25 -3 44q-31 -31 -56 -69t-45 -77zM354 608q-6 -2 -17.5 -10.5t-23.5 -19.5t-24 -23.5t-19 -21.5q-15 -22 -27.5 -31t-35.5 -2q-10 4 -11.5 12.5t0.5 16.5q2 10 8 21l45 49
q19 20 41 40.5t39 31.5t29 11.5t20 -4t13.5 -12t8.5 -12.5q1 -5 7 -15.5t14 -23t18 -25t20 -20.5q9 -8 17 -18t10.5 -19.5t-2.5 -16.5t-22 -8q-17 0 -36 15.5t-35 34.5q-18 22 -37 50z" />
    <glyph glyph-name="atilde" unicode="&#xe3;" 
d="M356 1l-10.5 58.5t-8.5 57.5q-8 6 -31 16.5t-54 13.5q-26 0 -50.5 -4t-38.5 -8q-11 -29 -19.5 -53.5t-14.5 -43.5q-7 -22 -12 -40l-111 3q11 59 30 112t43 99.5t51 86t53 71.5q62 75 132 131q32 -2 50 -9t27 -15q10 -10 12 -21q1 -35 5.5 -73t10 -77t12.5 -77t14 -72
q17 -80 37 -159zM210 236q9 3 22 6t28 3t31.5 -3.5t31.5 -13.5q-3 32 -5 60.5t-4 49.5q-2 25 -3 44q-31 -31 -56 -69t-45 -77zM440 552q-2 12 -7 21t-25 23q-10 7 -18.5 6t-19 -8t-23 -19l-29.5 -27t-34.5 -16t-33 5.5t-28.5 16.5t-20 18q-8 7 -9 18.5t2.5 22t12 18.5
t20.5 9t17.5 -3t9 -10l7.5 -12.5t12 -10.5q8 -5 12.5 -5t9 4.5t12 13t22.5 21.5q30 26 54.5 27t53.5 -11t42.5 -40t7.5 -58q-3 -15 -10.5 -19.5t-15.5 -3t-14.5 7.5t-7.5 11z" />
    <glyph glyph-name="adieresis" unicode="&#xe4;" 
d="M356 1l-10.5 58.5t-8.5 57.5q-8 6 -31 16.5t-54 13.5q-26 0 -50.5 -4t-38.5 -8q-11 -29 -19.5 -53.5t-14.5 -43.5q-7 -22 -12 -40l-111 3q11 59 30 112t43 99.5t51 86t53 71.5q62 75 132 131q32 -2 50 -9t27 -15q10 -10 12 -21q1 -35 5.5 -73t10 -77t12.5 -77t14 -72
q17 -80 37 -159zM210 236q9 3 22 6t28 3t31.5 -3.5t31.5 -13.5q-3 32 -5 60.5t-4 49.5q-2 25 -3 44q-31 -31 -56 -69t-45 -77zM319 567q-3 -21 -16.5 -32t-30 -13t-32.5 4.5t-23 20.5q-7 15 -6 29.5t7.5 26t18 18.5t26.5 7q32 2 46 -16.5t10 -44.5zM471 570
q-3 -21 -16.5 -32t-30.5 -12.5t-32.5 5.5t-22.5 21t-6.5 28t7.5 25.5t18.5 18.5t26.5 7q31 3 45 -16t11 -45z" />
    <glyph glyph-name="aring" unicode="&#xe5;" 
d="M356 1l-10.5 58.5t-8.5 57.5q-8 6 -31 16.5t-54 13.5q-26 0 -50.5 -4t-38.5 -8q-11 -29 -19.5 -53.5t-14.5 -43.5q-7 -22 -12 -40l-111 3q11 59 30 112t43 99.5t51 86t53 71.5q62 75 132 131q32 -2 50 -9t27 -15q10 -10 12 -21q1 -35 5.5 -73t10 -77t12.5 -77t14 -72
q17 -80 37 -159zM210 236q9 3 22 6t28 3t31.5 -3.5t31.5 -13.5q-3 32 -5 60.5t-4 49.5q-2 25 -3 44q-31 -31 -56 -69t-45 -77zM436 625q3 -23 -4 -43.5t-20 -36t-31 -25.5t-36 -12l-2 2q-25 -2 -42 8.5t-27 27t-13.5 36t-0.5 34.5t14.5 28t26.5 22.5t32.5 15.5t32.5 7
q30 2 48.5 -17t21.5 -47zM346 545q20 1 37 18.5t15 45.5q-3 29 -15.5 37.5t-22.5 6.5q-4 0 -14.5 -3.5t-21 -10t-19 -16t-9.5 -21.5q-2 -26 13.5 -42t36.5 -15z" />
    <glyph glyph-name="egrave" unicode="&#xe8;" horiz-adv-x="441" 
d="M379 480q3 -12 3 -23q0 -10 -3.5 -22t-13.5 -22q-12 -9 -41 -8t-63 2.5t-65.5 0t-47.5 -15.5q-16 -16 -18 -34t2 -34q4 -18 16 -37q29 4 55 3q22 -1 43.5 -6t30.5 -18q8 -13 8 -24.5t-5 -20.5q-5 -11 -14 -20l-135 -17q-7 -8 -8 -19q-2 -9 2.5 -20.5t18.5 -24.5
q17 -16 39.5 -21t48 -2.5t52 11t52.5 19.5q60 26 124 71q11 -5 16 -16.5t6 -22.5q1 -13 -2 -29q-35 -48 -88 -80.5t-112.5 -43t-118.5 3.5t-105 59q-23 22 -34 49.5t-14.5 57t-0.5 60t9 58.5q15 66 50 135q-19 7 -26 17q-6 8 -1.5 20t34.5 28q15 7 36.5 10.5t46 4t50.5 -1.5
t51 -5q58 -8 122 -22zM332 502q-28 9 -54 20q-23 8 -49 18.5l-47 18.5q-45 15 -70.5 33.5t-20.5 41.5q4 13 19 16t34.5 0t41 -9.5l38.5 -11.5q18 -4 36.5 -11.5t35.5 -16.5t30.5 -18.5t22.5 -17.5q8 -8 6.5 -18.5t-6.5 -20.5q-6 -11 -17 -24z" />
    <glyph glyph-name="eacute" unicode="&#xe9;" horiz-adv-x="441" 
d="M379 480q-64 14 -122 22q-25 3 -51 5t-50.5 1.5t-46 -4t-36.5 -10.5q-30 -16 -34.5 -28t1.5 -20q7 -10 26 -17q-35 -69 -50 -135q-6 -28 -9 -58.5t0.5 -60t14.5 -57t34 -49.5q46 -45 105 -59t118.5 -3.5t112.5 43t88 80.5q3 16 2 29q-1 11 -6 22.5t-16 16.5
q-64 -45 -124 -71q-26 -11 -52.5 -19.5t-52 -11t-48 2.5t-39.5 21q-14 13 -18.5 24.5t-2.5 20.5q1 11 8 19l135 17q9 9 14 20q5 9 5 20.5t-8 24.5q-9 13 -30.5 18t-43.5 6q-26 1 -55 -3q-12 19 -16 37q-4 16 -2 34t18 34q16 14 47.5 15.5t65.5 0t63 -2.5t41 8q10 10 13.5 22
t3.5 22q0 11 -3 23zM100 495q-10 16 -9 32q1 14 12 28.5t43 25.5l68 26.5t66 22t54.5 11t32.5 -4.5q14 -12 16 -26t-14 -30q-6 -4 -26 -11.5t-47 -16.5t-58.5 -18.5l-59.5 -17.5l-49 -14t-29 -7z" />
    <glyph glyph-name="ecircumflex" unicode="&#xea;" horiz-adv-x="441" 
d="M379 480q3 -12 3 -23q0 -10 -3.5 -22t-13.5 -22q-12 -9 -41 -8t-63 2.5t-65.5 0t-47.5 -15.5q-16 -16 -18 -34t2 -34q4 -18 16 -37q29 4 55 3q22 -1 43.5 -6t30.5 -18q8 -13 8 -24.5t-5 -20.5q-5 -11 -14 -20l-135 -17q-7 -8 -8 -19q-2 -9 2.5 -20.5t18.5 -24.5
q17 -16 39.5 -21t48 -2.5t52 11t52.5 19.5q60 26 124 71q11 -5 16 -16.5t6 -22.5q1 -13 -2 -29q-35 -48 -88 -80.5t-112.5 -43t-118.5 3.5t-105 59q-23 22 -34 49.5t-14.5 57t-0.5 60t9 58.5q15 66 50 135q-19 7 -26 17q-6 8 -1.5 20t34.5 28q15 7 36.5 10.5t46 4t50.5 -1.5
t51 -5q58 -8 122 -22zM228 608q-6 -2 -17.5 -10.5t-23.5 -19.5t-24 -23.5t-19 -21.5q-15 -22 -27.5 -31t-35.5 -2q-10 4 -11.5 12.5t0.5 16.5q2 10 8 21l45 49q19 20 41 40.5t39 31.5t29 11.5t20 -4t13.5 -12t8.5 -12.5q1 -5 7 -15.5t14 -23t18 -25t20 -20.5q9 -8 17 -18
t10.5 -19.5t-2.5 -16.5t-22 -8q-17 0 -36 15.5t-35 34.5q-18 22 -37 50z" />
    <glyph glyph-name="edieresis" unicode="&#xeb;" horiz-adv-x="441" 
d="M379 480q3 -12 3 -23q0 -10 -3.5 -22t-13.5 -22q-12 -9 -41 -8t-63 2.5t-65.5 0t-47.5 -15.5q-16 -16 -18 -34t2 -34q4 -18 16 -37q29 4 55 3q22 -1 43.5 -6t30.5 -18q8 -13 8 -24.5t-5 -20.5q-5 -11 -14 -20l-135 -17q-7 -8 -8 -19q-2 -9 2.5 -20.5t18.5 -24.5
q17 -16 39.5 -21t48 -2.5t52 11t52.5 19.5q60 26 124 71q11 -5 16 -16.5t6 -22.5q1 -13 -2 -29q-35 -48 -88 -80.5t-112.5 -43t-118.5 3.5t-105 59q-23 22 -34 49.5t-14.5 57t-0.5 60t9 58.5q15 66 50 135q-19 7 -26 17q-6 8 -1.5 20t34.5 28q15 7 36.5 10.5t46 4t50.5 -1.5
t51 -5q58 -8 122 -22zM194 567q-3 -21 -16.5 -32t-30 -13t-32.5 4.5t-23 20.5q-7 15 -6 29.5t7.5 26t18 18.5t26.5 7q32 2 46 -16.5t10 -44.5zM346 570q-3 -21 -16.5 -32t-30.5 -12.5t-32.5 5.5t-22.5 21t-6.5 28t7.5 25.5t18.5 18.5t26.5 7q31 3 45 -16t11 -45z" />
    <glyph glyph-name="ntilde" unicode="&#xf1;" horiz-adv-x="529" 
d="M63 41q0 38 -2 76q-2 32 -4.5 68t-7.5 65q-4 18 -11.5 43l-15 52t-13 53.5t-5.5 48.5t7 37t24 19q26 5 55 -16t57.5 -51.5t54.5 -62.5t46 -49q19 -17 43.5 -41.5t47 -44t40 -27t23.5 10.5q4 12 5.5 35t1 49.5t-0.5 55t1.5 52t6 40.5t14.5 20l28.5 8t27 0.5t21 -17
t10.5 -43.5q2 -20 3 -59.5t-0.5 -87t-5 -97t-10.5 -89.5t-18.5 -65t-27.5 -22q-25 4 -41.5 13.5t-28.5 22t-22 28t-23 30.5q-9 11 -27.5 30.5l-41.5 42l-47.5 45l-45 40t-34 26.5t-14.5 5q-3 -5 0.5 -18.5t9 -31.5l12 -39.5t10.5 -42.5q3 -21 4.5 -46.5t-2.5 -47.5
t-13.5 -37.5t-27.5 -16.5q-17 -3 -29 2t-20 13q-9 9 -14 21zM357 552q-2 12 -7 21t-25 23q-10 7 -18.5 6t-19 -8t-23 -19l-29.5 -27t-34.5 -16t-33 5.5t-28.5 16.5t-20 18q-8 7 -9 18.5t2.5 22t12 18.5t20.5 9t17.5 -3t9 -10l7.5 -12.5t12 -10.5q8 -5 12.5 -5t9 4.5t12 13
t22.5 21.5q30 26 54.5 27t53.5 -11t42.5 -40t7.5 -58q-3 -15 -10.5 -19.5t-15.5 -3t-14.5 7.5t-7.5 11z" />
    <glyph glyph-name="ograve" unicode="&#xf2;" horiz-adv-x="470" 
d="M228 498q67 3 111 -16.5t70 -55.5t37 -86t11 -108q0 -38 -10 -77.5t-34 -72t-64 -54.5t-101 -26q-45 -3 -87 14t-75 48t-53 74.5t-21 93.5q-2 50 13 97t43 83.5t68.5 60t91.5 25.5zM361 252q1 40 -8.5 67.5t-25.5 45t-35.5 26t-37.5 9.5q-19 1 -43.5 -4.5t-46.5 -21.5
t-37.5 -44.5t-16.5 -73.5q0 -44 12.5 -74t32.5 -48.5t45.5 -27t51.5 -8.5q56 0 81.5 37.5t27.5 116.5zM358 502q-28 9 -54 20q-23 8 -49 18.5l-47 18.5q-45 15 -70.5 33.5t-20.5 41.5q4 13 19 16t34.5 0t41 -9.5l38.5 -11.5q18 -4 36.5 -11.5t35.5 -16.5t30.5 -18.5
t22.5 -17.5q8 -8 6.5 -18.5t-6.5 -20.5q-6 -11 -17 -24z" />
    <glyph glyph-name="oacute" unicode="&#xf3;" horiz-adv-x="470" 
d="M228 498q-51 -2 -91.5 -25.5t-68.5 -60t-43 -83.5t-13 -97q1 -50 21 -93.5t53 -74.5t75 -48t87 -14q61 4 101 26t64 54.5t34 72t10 77.5q0 58 -11 108t-37 86t-70 55.5t-111 16.5zM361 252q-2 -79 -27.5 -116.5t-81.5 -37.5q-26 0 -51.5 8.5t-45.5 27t-32.5 48.5
t-12.5 74q1 45 16.5 73.5t37.5 44.5t46.5 21.5t43.5 4.5q18 -1 37.5 -9.5t35.5 -26t25.5 -45t8.5 -67.5zM107 495q-10 16 -9 32q1 14 12 28.5t43 25.5l68 26.5t66 22t54.5 11t32.5 -4.5q14 -12 16 -26t-14 -30q-6 -4 -26 -11.5t-47 -16.5t-58.5 -18.5l-59.5 -17.5l-49 -14
t-29 -7z" />
    <glyph glyph-name="ocircumflex" unicode="&#xf4;" horiz-adv-x="470" 
d="M228 498q67 3 111 -16.5t70 -55.5t37 -86t11 -108q0 -38 -10 -77.5t-34 -72t-64 -54.5t-101 -26q-45 -3 -87 14t-75 48t-53 74.5t-21 93.5q-2 50 13 97t43 83.5t68.5 60t91.5 25.5zM361 252q1 40 -8.5 67.5t-25.5 45t-35.5 26t-37.5 9.5q-19 1 -43.5 -4.5t-46.5 -21.5
t-37.5 -44.5t-16.5 -73.5q0 -44 12.5 -74t32.5 -48.5t45.5 -27t51.5 -8.5q56 0 81.5 37.5t27.5 116.5zM249 608q-6 -2 -17.5 -10.5t-23.5 -19.5t-24 -23.5t-19 -21.5q-15 -22 -27.5 -31t-35.5 -2q-10 4 -11.5 12.5t0.5 16.5q2 10 8 21l45 49q19 20 41 40.5t39 31.5t29 11.5
t20 -4t13.5 -12t8.5 -12.5q1 -5 7 -15.5t14 -23t18 -25t20 -20.5q9 -8 17 -18t10.5 -19.5t-2.5 -16.5t-22 -8q-17 0 -36 15.5t-35 34.5q-18 22 -37 50z" />
    <glyph glyph-name="otilde" unicode="&#xf5;" horiz-adv-x="470" 
d="M228 498q67 3 111 -16.5t70 -55.5t37 -86t11 -108q0 -38 -10 -77.5t-34 -72t-64 -54.5t-101 -26q-45 -3 -87 14t-75 48t-53 74.5t-21 93.5q-2 50 13 97t43 83.5t68.5 60t91.5 25.5zM361 252q1 40 -8.5 67.5t-25.5 45t-35.5 26t-37.5 9.5q-19 1 -43.5 -4.5t-46.5 -21.5
t-37.5 -44.5t-16.5 -73.5q0 -44 12.5 -74t32.5 -48.5t45.5 -27t51.5 -8.5q56 0 81.5 37.5t27.5 116.5zM337 552q-2 12 -7 21t-25 23q-10 7 -18.5 6t-19 -8t-23 -19l-29.5 -27t-34.5 -16t-33 5.5t-28.5 16.5t-20 18q-8 7 -9 18.5t2.5 22t12 18.5t20.5 9t17.5 -3t9 -10
l7.5 -12.5t12 -10.5q8 -5 12.5 -5t9 4.5t12 13t22.5 21.5q30 26 54.5 27t53.5 -11t42.5 -40t7.5 -58q-3 -15 -10.5 -19.5t-15.5 -3t-14.5 7.5t-7.5 11z" />
    <glyph glyph-name="odieresis" unicode="&#xf6;" horiz-adv-x="470" 
d="M228 498q67 3 111 -16.5t70 -55.5t37 -86t11 -108q0 -38 -10 -77.5t-34 -72t-64 -54.5t-101 -26q-45 -3 -87 14t-75 48t-53 74.5t-21 93.5q-2 50 13 97t43 83.5t68.5 60t91.5 25.5zM361 252q1 40 -8.5 67.5t-25.5 45t-35.5 26t-37.5 9.5q-19 1 -43.5 -4.5t-46.5 -21.5
t-37.5 -44.5t-16.5 -73.5q0 -44 12.5 -74t32.5 -48.5t45.5 -27t51.5 -8.5q56 0 81.5 37.5t27.5 116.5zM224 567q-3 -21 -16.5 -32t-30 -13t-32.5 4.5t-23 20.5q-7 15 -6 29.5t7.5 26t18 18.5t26.5 7q32 2 46 -16.5t10 -44.5zM376 570q-3 -21 -16.5 -32t-30.5 -12.5
t-32.5 5.5t-22.5 21t-6.5 28t7.5 25.5t18.5 18.5t26.5 7q31 3 45 -16t11 -45z" />
    <glyph glyph-name="ugrave" unicode="&#xf9;" horiz-adv-x="491" 
d="M436 200q2 -18 6 -39t9.5 -41t11 -37t10.5 -27q10 -20 -4 -36.5t-57 -18.5q-23 -2 -36 4.5t-21 16.5q-9 11 -12 26q-38 -10 -78 -19q-35 -8 -77 -16t-84 -12q-43 -4 -61 11t-21.5 37.5t2 47.5t10.5 42q6 15 13 41t14 56t12.5 59.5l9.5 52.5q5 21 7.5 41t7.5 36t15 26.5
t31 12.5t30 -18.5t10.5 -51.5t-2 -66.5t-7.5 -62.5q-3 -26 -14 -51t-19 -46t-8.5 -38t16.5 -27q18 -9 47.5 -4t58.5 14q33 11 70 28q-6 59 -10 113q-2 23 -3 47t-1.5 46.5t-0.5 42.5t2 35q1 31 10.5 47t24 22.5t31.5 6t33 -3.5q14 -1 18.5 -10.5t3.5 -25t-4.5 -35
t-4.5 -38.5q0 -20 1.5 -51t3.5 -62zM341 502q-28 9 -54 20q-23 8 -49 18.5l-47 18.5q-45 15 -70.5 33.5t-20.5 41.5q4 13 19 16t34.5 0t41 -9.5l38.5 -11.5q18 -4 36.5 -11.5t35.5 -16.5t30.5 -18.5t22.5 -17.5q8 -8 6.5 -18.5t-6.5 -20.5q-6 -11 -17 -24z" />
    <glyph glyph-name="uacute" unicode="&#xfa;" horiz-adv-x="491" 
d="M436 200l-6 75q-2 31 -3.5 62t-1.5 51q1 19 4.5 38.5t4.5 35t-3.5 25t-18.5 10.5q-16 3 -33 3.5t-31.5 -6t-24 -22.5t-10.5 -47q-2 -15 -2 -35t0.5 -42.5t1.5 -46.5t3 -47q4 -54 10 -113q-37 -17 -70 -28q-29 -9 -58.5 -14t-47.5 4q-17 10 -16.5 27t8.5 38t19 46t14 51
q4 27 7.5 62.5t2 66.5t-10.5 51.5t-30 18.5t-31 -12.5t-15 -26.5t-7.5 -36t-7.5 -41l-9.5 -52.5t-12.5 -59.5t-14 -56t-13 -41q-5 -17 -10.5 -42t-2 -47.5t21.5 -37.5t61 -11q42 4 84 12t77 16q40 9 78 19q3 -15 12 -26q8 -10 21 -16.5t36 -4.5q43 2 57 18.5t4 36.5
q-5 10 -10.5 27t-11 37t-9.5 41t-6 39zM152 495q-10 16 -9 32q1 14 12 28.5t43 25.5l68 26.5t66 22t54.5 11t32.5 -4.5q14 -12 16 -26t-14 -30q-6 -4 -26 -11.5t-47 -16.5t-58.5 -18.5l-59.5 -17.5l-49 -14t-29 -7z" />
    <glyph glyph-name="ucircumflex" unicode="&#xfb;" horiz-adv-x="491" 
d="M436 200q2 -18 6 -39t9.5 -41t11 -37t10.5 -27q10 -20 -4 -36.5t-57 -18.5q-23 -2 -36 4.5t-21 16.5q-9 11 -12 26q-38 -10 -78 -19q-35 -8 -77 -16t-84 -12q-43 -4 -61 11t-21.5 37.5t2 47.5t10.5 42q6 15 13 41t14 56t12.5 59.5l9.5 52.5q5 21 7.5 41t7.5 36t15 26.5
t31 12.5t30 -18.5t10.5 -51.5t-2 -66.5t-7.5 -62.5q-3 -26 -14 -51t-19 -46t-8.5 -38t16.5 -27q18 -9 47.5 -4t58.5 14q33 11 70 28q-6 59 -10 113q-2 23 -3 47t-1.5 46.5t-0.5 42.5t2 35q1 31 10.5 47t24 22.5t31.5 6t33 -3.5q14 -1 18.5 -10.5t3.5 -25t-4.5 -35
t-4.5 -38.5q0 -20 1.5 -51t3.5 -62zM278 608q-6 -2 -17.5 -10.5t-23.5 -19.5t-24 -23.5t-19 -21.5q-15 -22 -27.5 -31t-35.5 -2q-10 4 -11.5 12.5t0.5 16.5q2 10 8 21l45 49q19 20 41 40.5t39 31.5t29 11.5t20 -4t13.5 -12t8.5 -12.5q1 -5 7 -15.5t14 -23t18 -25t20 -20.5
q9 -8 17 -18t10.5 -19.5t-2.5 -16.5t-22 -8q-17 0 -36 15.5t-35 34.5q-18 22 -37 50z" />
    <glyph glyph-name="udieresis" unicode="&#xfc;" horiz-adv-x="491" 
d="M436 200q2 -18 6 -39t9.5 -41t11 -37t10.5 -27q10 -20 -4 -36.5t-57 -18.5q-23 -2 -36 4.5t-21 16.5q-9 11 -12 26q-38 -10 -78 -19q-35 -8 -77 -16t-84 -12q-43 -4 -61 11t-21.5 37.5t2 47.5t10.5 42q6 15 13 41t14 56t12.5 59.5l9.5 52.5q5 21 7.5 41t7.5 36t15 26.5
t31 12.5t30 -18.5t10.5 -51.5t-2 -66.5t-7.5 -62.5q-3 -26 -14 -51t-19 -46t-8.5 -38t16.5 -27q18 -9 47.5 -4t58.5 14q33 11 70 28q-6 59 -10 113q-2 23 -3 47t-1.5 46.5t-0.5 42.5t2 35q1 31 10.5 47t24 22.5t31.5 6t33 -3.5q14 -1 18.5 -10.5t3.5 -25t-4.5 -35
t-4.5 -38.5q0 -20 1.5 -51t3.5 -62zM248 567q-3 -21 -16.5 -32t-30 -13t-32.5 4.5t-23 20.5q-7 15 -6 29.5t7.5 26t18 18.5t26.5 7q32 2 46 -16.5t10 -44.5zM400 570q-3 -21 -16.5 -32t-30.5 -12.5t-32.5 5.5t-22.5 21t-6.5 28t7.5 25.5t18.5 18.5t26.5 7q31 3 45 -16
t11 -45z" />
    <glyph glyph-name="z" unicode="z" horiz-adv-x="589" 
d="M335 404q2 1 -22 -4.5t-60 -14.5l-77 -20l-72 -20q-65 -18 -96.5 -7t-20.5 57q5 21 33 36t67.5 27t86 21.5l88.5 18.5l62.5 11.5t69.5 11t68 5.5t57.5 -4t38.5 -18.5t11 -37.5q-3 -25 -19 -49.5t-41 -47.5t-54.5 -45t-58.5 -41.5l-54.5 -37t-41.5 -32.5
q-25 -21 -35.5 -37t-13.5 -27q-4 -12 -1 -21q62 13 116 22q23 4 46 7t44 4.5t37.5 1t25.5 -3.5q36 -11 57 -24.5t13 -42.5q-5 -17 -12.5 -27.5t-20 -15.5t-32.5 -5t-48 3t-60 0.5t-62.5 -7.5t-58 -11t-46.5 -9q-21 -6 -51.5 -12.5t-59.5 -5t-51 14.5t-26 48q-3 34 14.5 60.5
t43 48t52.5 40.5t43 38q17 17 30.5 34t27 36l28.5 39t35 43z" />
    <glyph glyph-name="l" unicode="l" horiz-adv-x="423" 
d="M19 79q24 67 42 127l14 51.5t12.5 49.5t8 42.5t1.5 31.5q-4 24 -10 41.5t-9 30t-1 21t16 15.5t28.5 10.5t27 2t21.5 -8.5t12 -20q4 -13 4.5 -37t-2 -54.5t-7.5 -64t-13 -64.5q-8 -29 -13 -56.5t-7 -48.5q-3 -25 -4 -47q29 -1 58 0q25 1 52 3.5t49 7.5q43 11 72.5 7
t38.5 -25q3 -11 4 -23.5t-3.5 -24t-16.5 -20.5t-34 -13q-15 -2 -40 -4.5t-55.5 -4.5t-63 -3.5t-61.5 -2.5t-52 -0.5t-33 3.5q-30 9 -38.5 32t2.5 46z" />
    <glyph glyph-name="v" unicode="v" horiz-adv-x="483" 
d="M261 224q18 38 41 72.5t45.5 62t41.5 46t29 26.5q18 15 38 21.5t55 -8.5q16 -7 20 -18t0 -22.5t-12 -20.5t-14 -13l-21 -21l-36.5 -37.5t-41.5 -46t-35 -48.5t-25 -59.5t-19 -69t-14.5 -58t-11.5 -25.5q-10 -5 -23.5 -2.5t-33.5 20.5q-6 5 -23.5 30t-40.5 61l-49 78
l-50 82l-42.5 72.5t-25.5 48.5q-11 25 -12.5 41.5t4.5 28t19.5 18t32.5 11.5q17 5 27 2t18.5 -18t20 -42.5t31.5 -71.5q21 -46 40.5 -73t34.5 -42q18 -18 32 -25z" />
    <glyph glyph-name="a" unicode="a" horiz-adv-x="436" 
d="M298 1l-10.5 58.5t-8.5 57.5q-8 6 -31 16.5t-54 13.5q-26 0 -50.5 -4t-38.5 -8q-11 -29 -19.5 -53.5t-14.5 -43.5q-7 -22 -12 -40l-111 3q11 59 30 112t43 99.5t51 86t53 71.5q62 75 132 131q32 -2 50 -9t27 -15q10 -10 12 -21q1 -35 5.5 -73t10 -77t12.5 -77t14 -72
q17 -80 37 -159zM152 236q9 3 22 6t28 3t31.5 -3.5t31.5 -13.5q-3 32 -5 60.5t-4 49.5q-2 25 -3 44q-31 -31 -56 -69t-45 -77z" />
    <glyph glyph-name="e" unicode="e" horiz-adv-x="441" 
d="M379 480q3 -12 3 -23q0 -10 -3.5 -22t-13.5 -22q-12 -9 -41 -8t-63 2.5t-65.5 0t-47.5 -15.5q-16 -16 -18 -34t2 -34q4 -18 16 -37q29 4 55 3q22 -1 43.5 -6t30.5 -18q8 -13 8 -24.5t-5 -20.5q-5 -11 -14 -20l-135 -17q-7 -8 -8 -19q-2 -9 2.5 -20.5t18.5 -24.5
q17 -16 39.5 -21t48 -2.5t52 11t52.5 19.5q60 26 124 71q11 -5 16 -16.5t6 -22.5q1 -13 -2 -29q-35 -48 -88 -80.5t-112.5 -43t-118.5 3.5t-105 59q-23 22 -34 49.5t-14.5 57t-0.5 60t9 58.5q15 66 50 135q-19 7 -26 17q-6 8 -1.5 20t34.5 28q15 7 36.5 10.5t46 4t50.5 -1.5
t51 -5q58 -8 122 -22z" />
    <glyph glyph-name="degree" unicode="&#xb0;" horiz-adv-x="280" 
d="M257 458q4 -31 -5.5 -59t-27.5 -49t-42 -34.5t-49 -16.5l-2 3q-34 -3 -57.5 11.5t-37 37t-18 48.5t-0.5 47q4 20 19.5 38t36.5 31t44.5 21t43.5 9q41 2 66 -23.5t29 -63.5zM132 364q22 1 41 20.5t17 49.5q-2 16 -7 26t-11 15t-12.5 7t-11.5 1q-5 0 -16 -4t-23 -11
t-21.5 -17.5t-10.5 -23.5q-2 -28 15 -46t40 -17z" />
  </font>
</defs>
</svg>
